<svg width="720" height="440" viewBox="0 0 720 440" fill="none" xmlns="http://www.w3.org/2000/svg">
<rect width="720" height="440" fill="#FFFCF5"/>
<path d="M121.178 213.234V191.438H126.053V213.234H147.756V218.203H126.053V240H121.178V218.203H99.3813V213.234H121.178ZM184.72 224.25V224.344C184.72 226.781 184.345 229.234 183.595 231.703C182.845 234.172 181.767 236.484 180.361 238.641C178.954 240.766 177.329 242.672 175.486 244.359C173.642 246.047 171.533 247.375 169.158 248.344C166.814 249.312 164.408 249.797 161.939 249.797C159.064 249.797 156.736 249.172 154.954 247.922C153.173 246.703 152.283 245.188 152.283 243.375C152.283 242.219 152.564 241.312 153.126 240.656C153.72 240.031 154.454 239.719 155.329 239.719C155.861 239.719 156.329 239.812 156.736 240C157.173 240.188 157.501 240.391 157.72 240.609C157.97 240.828 158.204 241.188 158.423 241.688C158.673 242.219 158.845 242.609 158.939 242.859C159.033 243.141 159.173 243.594 159.361 244.219C159.736 245.469 160.251 246.312 160.908 246.75C161.564 247.188 162.579 247.406 163.954 247.406C167.704 247.406 171.033 245.5 173.939 241.688C176.845 237.906 178.298 233.281 178.298 227.812C178.298 222.344 177.048 218.016 174.548 214.828C172.079 211.641 168.939 210.047 165.126 210.047C164.001 210.047 162.861 210.266 161.704 210.703C160.579 211.141 159.751 211.531 159.22 211.875C158.72 212.219 158.001 212.734 157.064 213.422C156.22 213.984 155.642 214.266 155.329 214.266C154.829 214.266 154.579 213.953 154.579 213.328C154.579 212.734 154.923 212.094 155.611 211.406C158.454 208.719 160.408 206.891 161.47 205.922C161.689 205.734 162.376 205.141 163.533 204.141C164.72 203.141 165.47 202.5 165.783 202.219C166.095 201.938 166.736 201.344 167.704 200.438C168.673 199.531 169.314 198.844 169.626 198.375C169.97 197.906 170.454 197.234 171.079 196.359C171.736 195.453 172.189 194.656 172.439 193.969C172.689 193.281 172.923 192.469 173.142 191.531C173.361 190.594 173.47 189.656 173.47 188.719C173.47 186.469 172.876 184.734 171.689 183.516C170.533 182.266 168.861 181.641 166.673 181.641C164.986 181.641 163.392 182.188 161.892 183.281C160.392 184.375 159.204 185.812 158.329 187.594C158.017 188.188 157.704 188.906 157.392 189.75C157.079 190.594 156.814 191.219 156.595 191.625C156.408 192 156.173 192.188 155.892 192.188C155.267 192.188 154.954 191.766 154.954 190.922C154.954 190.422 155.079 189.719 155.329 188.812C155.611 187.906 156.095 186.844 156.783 185.625C157.47 184.406 158.314 183.281 159.314 182.25C160.314 181.188 161.658 180.297 163.345 179.578C165.033 178.828 166.908 178.453 168.97 178.453C172.251 178.453 174.986 179.266 177.173 180.891C179.392 182.516 180.501 184.875 180.501 187.969C180.501 190.094 179.892 192.062 178.673 193.875C177.486 195.656 175.751 197.469 173.47 199.312C172.314 200.312 170.048 202.094 166.673 204.656C166.548 204.75 166.376 204.875 166.158 205.031C165.939 205.156 165.767 205.266 165.642 205.359C165.548 205.422 165.423 205.516 165.267 205.641C165.142 205.734 165.048 205.828 164.986 205.922C164.954 205.984 164.939 206.047 164.939 206.109C164.939 206.359 165.064 206.484 165.314 206.484C165.408 206.484 165.908 206.406 166.814 206.25C167.72 206.094 168.533 206.016 169.251 206.016C173.533 206.016 177.173 207.672 180.173 210.984C183.204 214.266 184.72 218.688 184.72 224.25ZM219.668 193.453V193.547C219.668 194.766 219.543 195.984 219.293 197.203C219.043 198.422 218.637 199.656 218.074 200.906C217.512 202.156 216.965 203.281 216.434 204.281C215.934 205.281 215.215 206.438 214.278 207.75C213.34 209.062 212.59 210.094 212.028 210.844C211.465 211.562 210.637 212.609 209.543 213.984C208.449 215.359 207.699 216.312 207.293 216.844C206.543 217.844 205.043 219.75 202.793 222.562C200.574 225.375 198.903 227.578 197.778 229.172C197.653 229.359 197.465 229.641 197.215 230.016C196.965 230.391 196.746 230.719 196.559 231C196.403 231.281 196.231 231.578 196.043 231.891C195.856 232.203 195.715 232.484 195.621 232.734C195.528 232.953 195.481 233.141 195.481 233.297C195.481 233.734 196.34 233.953 198.059 233.953C202.965 233.953 206.871 233.828 209.778 233.578C212.309 233.234 214.168 232.562 215.356 231.562C216.574 230.562 217.403 228.828 217.84 226.359C217.871 226.141 217.918 225.875 217.981 225.562C218.043 225.25 218.09 225.016 218.121 224.859C218.153 224.672 218.184 224.469 218.215 224.25C218.246 224.031 218.278 223.859 218.309 223.734C218.34 223.609 218.387 223.484 218.449 223.359C218.512 223.203 218.559 223.094 218.59 223.031C218.653 222.938 218.715 222.859 218.778 222.797C218.871 222.734 218.965 222.688 219.059 222.656C219.153 222.625 219.262 222.609 219.387 222.609C219.731 222.609 219.965 222.812 220.09 223.219C220.246 223.594 220.324 224.359 220.324 225.516V238.266C220.324 239.109 220.199 239.672 219.949 239.953C219.731 240.234 219.324 240.375 218.731 240.375C218.543 240.375 217.356 240.312 215.168 240.188C213.106 240.062 211.309 240 209.778 240H190.699C189.793 240 189.34 239.641 189.34 238.922C189.34 238.609 189.481 238.172 189.762 237.609C190.074 237.016 190.481 236.328 190.981 235.547C191.512 234.766 191.793 234.359 191.824 234.328C192.793 232.891 194.278 230.734 196.278 227.859C198.278 224.984 199.778 222.828 200.778 221.391C204.996 215.109 208.012 209.875 209.824 205.688C211.637 201.5 212.543 197.516 212.543 193.734C212.543 189.859 211.699 186.891 210.012 184.828C208.356 182.766 205.981 181.734 202.887 181.734C200.731 181.734 198.824 182.422 197.168 183.797C195.512 185.141 194.293 186.688 193.512 188.438C192.762 190.156 192.293 191.891 192.106 193.641C192.012 194.797 191.543 195.375 190.699 195.375C190.043 195.375 189.715 194.859 189.715 193.828C189.715 192.078 190.043 190.328 190.699 188.578C191.356 186.828 192.278 185.188 193.465 183.656C194.684 182.125 196.309 180.875 198.34 179.906C200.371 178.938 202.621 178.453 205.09 178.453C209.559 178.453 213.106 179.781 215.731 182.438C218.356 185.062 219.668 188.734 219.668 193.453ZM276.111 220.031H271.236C270.611 220.031 270.189 220.141 269.971 220.359C269.783 220.547 269.689 220.984 269.689 221.672V231.75C269.689 234.156 269.939 235.734 270.439 236.484C270.939 237.234 272.064 237.672 273.814 237.797C274.908 237.922 275.643 238.094 276.018 238.312C276.393 238.5 276.58 238.812 276.58 239.25C276.58 239.688 276.408 239.984 276.064 240.141C275.752 240.297 275.221 240.375 274.471 240.375C274.127 240.375 272.939 240.312 270.908 240.188C268.877 240.062 267.377 240 266.408 240C264.939 240 263.283 240.062 261.439 240.188C259.627 240.312 258.471 240.375 257.971 240.375C257.408 240.375 257.002 240.281 256.752 240.094C256.533 239.938 256.424 239.625 256.424 239.156C256.424 238.688 256.689 238.375 257.221 238.219C257.752 238.031 258.861 237.859 260.549 237.703C261.861 237.609 262.721 237.203 263.127 236.484C263.533 235.766 263.736 234.25 263.736 231.938V221.672C263.736 220.953 263.627 220.5 263.408 220.312C263.189 220.125 262.721 220.031 262.002 220.031H246.861H243.299C242.143 220.031 241.564 219.609 241.564 218.766C241.564 217.578 241.611 216.781 241.705 216.375C241.83 215.938 242.189 215.266 242.783 214.359C245.471 209.828 249.518 203 254.924 193.875C260.361 184.719 264.424 177.859 267.111 173.297C268.205 171.422 268.846 170.422 269.033 170.297C269.127 170.234 269.221 170.203 269.314 170.203H270.861C271.299 170.203 271.424 170.422 271.236 170.859C271.049 171.266 270.752 171.812 270.346 172.5C269.971 173.156 269.721 173.609 269.596 173.859C259.252 191.297 251.799 203.75 247.236 211.219C245.893 213.594 245.221 215.219 245.221 216.094C245.221 216.531 245.596 216.75 246.346 216.75H262.096C262.783 216.75 263.221 216.641 263.408 216.422C263.627 216.203 263.736 215.703 263.736 214.922V195.469C263.736 195.062 263.799 194.781 263.924 194.625C264.049 194.469 264.33 194.328 264.768 194.203C265.236 193.984 266.002 193.703 267.064 193.359C268.158 193.016 268.814 192.844 269.033 192.844C269.471 192.844 269.689 193.328 269.689 194.297V215.156C269.689 215.781 269.783 216.203 269.971 216.422C270.189 216.641 270.58 216.75 271.143 216.75H276.111C276.518 216.75 276.799 216.859 276.955 217.078C277.111 217.266 277.189 217.641 277.189 218.203C277.189 218.953 277.111 219.453 276.955 219.703C276.83 219.922 276.549 220.031 276.111 220.031ZM296.763 178.359H296.856C301.263 178.359 304.919 179.75 307.825 182.531C310.763 185.312 312.231 188.719 312.231 192.75C312.231 194 311.997 195.203 311.528 196.359C311.091 197.484 310.575 198.438 309.981 199.219C309.388 199.969 308.575 200.766 307.544 201.609C306.544 202.422 305.731 203.031 305.106 203.438C304.481 203.812 303.653 204.312 302.622 204.938C301.153 205.844 300.356 206.453 300.231 206.766C300.388 207.016 300.669 207.234 301.075 207.422C301.481 207.609 302.263 208.016 303.419 208.641C304.575 209.266 305.888 210.125 307.356 211.219C309.606 212.875 311.216 214.703 312.184 216.703C313.184 218.672 313.684 221 313.684 223.688C313.684 228.688 311.95 232.922 308.481 236.391C305.013 239.828 300.669 241.547 295.45 241.547C292.825 241.547 290.388 241.078 288.138 240.141C285.888 239.234 284.028 238.047 282.559 236.578C281.122 235.109 279.997 233.516 279.184 231.797C278.372 230.047 277.966 228.328 277.966 226.641C277.966 225.797 278.028 225 278.153 224.25C278.278 223.5 278.403 222.828 278.528 222.234C278.653 221.641 278.903 221.016 279.278 220.359C279.653 219.703 279.934 219.188 280.122 218.812C280.341 218.406 280.747 217.906 281.341 217.312C281.934 216.719 282.356 216.297 282.606 216.047C282.856 215.766 283.372 215.344 284.153 214.781C284.934 214.188 285.45 213.797 285.7 213.609C285.95 213.422 286.544 213.016 287.481 212.391C288.45 211.734 289.059 211.312 289.309 211.125C290.622 210.062 291.294 209.484 291.325 209.391C291.231 209.234 290.981 209.047 290.575 208.828C290.2 208.578 289.544 208.156 288.606 207.562C287.7 206.969 286.716 206.234 285.653 205.359C284.122 204.078 282.841 202.438 281.809 200.438C280.778 198.438 280.263 196.328 280.263 194.109C280.263 189.641 281.794 185.906 284.856 182.906C287.919 179.875 291.888 178.359 296.763 178.359ZM297.559 205.453H297.653C297.872 205.453 298.278 205.297 298.872 204.984C299.497 204.641 300.247 204.109 301.122 203.391C301.997 202.641 302.825 201.797 303.606 200.859C304.388 199.922 305.059 198.75 305.622 197.344C306.184 195.906 306.466 194.406 306.466 192.844C306.466 189.312 305.575 186.391 303.794 184.078C302.044 181.734 299.481 180.562 296.106 180.562C292.888 180.562 290.403 181.641 288.653 183.797C286.903 185.922 286.028 188.438 286.028 191.344C286.028 193.938 286.559 196.062 287.622 197.719C288.684 199.344 290.325 200.984 292.544 202.641C294.981 204.516 296.653 205.453 297.559 205.453ZM296.013 239.344H296.106C299.7 239.344 302.528 238.078 304.591 235.547C306.684 232.984 307.731 229.828 307.731 226.078C307.731 223.641 307.247 221.594 306.278 219.938C305.341 218.281 303.872 216.75 301.872 215.344C297.716 212.312 295.059 210.797 293.903 210.797C293.559 210.797 293.013 211.031 292.263 211.5C291.513 211.969 290.653 212.656 289.684 213.562C288.716 214.469 287.794 215.5 286.919 216.656C286.044 217.812 285.309 219.203 284.716 220.828C284.122 222.422 283.825 224.047 283.825 225.703C283.825 228.172 284.216 230.406 284.997 232.406C285.809 234.375 287.153 236.031 289.028 237.375C290.934 238.688 293.263 239.344 296.013 239.344ZM315.211 200.25V200.156C315.211 193.875 316.726 188.672 319.758 184.547C322.789 180.422 326.617 178.359 331.242 178.359C334.554 178.359 337.586 179.641 340.336 182.203C343.117 184.766 345.289 188.172 346.851 192.422C348.414 196.641 349.195 201.172 349.195 206.016C349.195 213.359 347.836 220.156 345.117 226.406C342.429 232.656 338.773 238.109 334.148 242.766C331.242 245.672 328.054 248.016 324.586 249.797C321.117 251.578 318.664 252.469 317.226 252.469C316.539 252.469 316.195 252.156 316.195 251.531C316.195 251 316.664 250.547 317.601 250.172C320.039 249.391 322.398 248.25 324.679 246.75C326.992 245.25 329.226 243.266 331.383 240.797C333.539 238.328 335.414 235.531 337.008 232.406C338.601 229.25 339.883 225.5 340.851 221.156C341.82 216.812 342.304 212.156 342.304 207.188C342.304 198.719 341.179 192.188 338.929 187.594C336.679 182.969 333.961 180.656 330.773 180.656C327.898 180.656 325.664 182.25 324.07 185.438C322.476 188.594 321.679 192.797 321.679 198.047C321.679 203.453 322.648 207.906 324.586 211.406C326.554 214.906 328.711 216.656 331.054 216.656C332.023 216.656 332.867 216.469 333.586 216.094C334.336 215.688 334.883 215.25 335.226 214.781C335.601 214.312 335.976 213.891 336.351 213.516C336.726 213.109 337.07 212.906 337.383 212.906C337.601 212.906 337.804 213.031 337.992 213.281C338.179 213.531 338.273 213.797 338.273 214.078C338.273 214.953 337.414 216.125 335.695 217.594C333.976 219.031 331.914 219.75 329.508 219.75C327.133 219.75 324.976 219.094 323.039 217.781C321.133 216.469 319.633 214.797 318.539 212.766C317.445 210.734 316.617 208.641 316.054 206.484C315.492 204.328 315.211 202.25 315.211 200.25ZM402.404 224.25V224.344C402.404 226.781 402.029 229.234 401.279 231.703C400.529 234.172 399.451 236.484 398.044 238.641C396.638 240.766 395.013 242.672 393.169 244.359C391.326 246.047 389.216 247.375 386.841 248.344C384.497 249.312 382.091 249.797 379.622 249.797C376.747 249.797 374.419 249.172 372.638 247.922C370.857 246.703 369.966 245.188 369.966 243.375C369.966 242.219 370.247 241.312 370.81 240.656C371.404 240.031 372.138 239.719 373.013 239.719C373.544 239.719 374.013 239.812 374.419 240C374.857 240.188 375.185 240.391 375.404 240.609C375.654 240.828 375.888 241.188 376.107 241.688C376.357 242.219 376.529 242.609 376.622 242.859C376.716 243.141 376.857 243.594 377.044 244.219C377.419 245.469 377.935 246.312 378.591 246.75C379.247 247.188 380.263 247.406 381.638 247.406C385.388 247.406 388.716 245.5 391.622 241.688C394.529 237.906 395.982 233.281 395.982 227.812C395.982 222.344 394.732 218.016 392.232 214.828C389.763 211.641 386.622 210.047 382.81 210.047C381.685 210.047 380.544 210.266 379.388 210.703C378.263 211.141 377.435 211.531 376.904 211.875C376.404 212.219 375.685 212.734 374.747 213.422C373.904 213.984 373.326 214.266 373.013 214.266C372.513 214.266 372.263 213.953 372.263 213.328C372.263 212.734 372.607 212.094 373.294 211.406C376.138 208.719 378.091 206.891 379.154 205.922C379.372 205.734 380.06 205.141 381.216 204.141C382.404 203.141 383.154 202.5 383.466 202.219C383.779 201.938 384.419 201.344 385.388 200.438C386.357 199.531 386.997 198.844 387.31 198.375C387.654 197.906 388.138 197.234 388.763 196.359C389.419 195.453 389.872 194.656 390.122 193.969C390.372 193.281 390.607 192.469 390.826 191.531C391.044 190.594 391.154 189.656 391.154 188.719C391.154 186.469 390.56 184.734 389.372 183.516C388.216 182.266 386.544 181.641 384.357 181.641C382.669 181.641 381.076 182.188 379.576 183.281C378.076 184.375 376.888 185.812 376.013 187.594C375.701 188.188 375.388 188.906 375.076 189.75C374.763 190.594 374.497 191.219 374.279 191.625C374.091 192 373.857 192.188 373.576 192.188C372.951 192.188 372.638 191.766 372.638 190.922C372.638 190.422 372.763 189.719 373.013 188.812C373.294 187.906 373.779 186.844 374.466 185.625C375.154 184.406 375.997 183.281 376.997 182.25C377.997 181.188 379.341 180.297 381.029 179.578C382.716 178.828 384.591 178.453 386.654 178.453C389.935 178.453 392.669 179.266 394.857 180.891C397.076 182.516 398.185 184.875 398.185 187.969C398.185 190.094 397.576 192.062 396.357 193.875C395.169 195.656 393.435 197.469 391.154 199.312C389.997 200.312 387.732 202.094 384.357 204.656C384.232 204.75 384.06 204.875 383.841 205.031C383.622 205.156 383.451 205.266 383.326 205.359C383.232 205.422 383.107 205.516 382.951 205.641C382.826 205.734 382.732 205.828 382.669 205.922C382.638 205.984 382.622 206.047 382.622 206.109C382.622 206.359 382.747 206.484 382.997 206.484C383.091 206.484 383.591 206.406 384.497 206.25C385.404 206.094 386.216 206.016 386.935 206.016C391.216 206.016 394.857 207.672 397.857 210.984C400.888 214.266 402.404 218.688 402.404 224.25ZM438.805 224.25V224.344C438.805 226.781 438.43 229.234 437.68 231.703C436.93 234.172 435.852 236.484 434.446 238.641C433.039 240.766 431.414 242.672 429.571 244.359C427.727 246.047 425.617 247.375 423.242 248.344C420.899 249.312 418.492 249.797 416.024 249.797C413.149 249.797 410.821 249.172 409.039 247.922C407.258 246.703 406.367 245.188 406.367 243.375C406.367 242.219 406.649 241.312 407.211 240.656C407.805 240.031 408.539 239.719 409.414 239.719C409.946 239.719 410.414 239.812 410.821 240C411.258 240.188 411.586 240.391 411.805 240.609C412.055 240.828 412.289 241.188 412.508 241.688C412.758 242.219 412.93 242.609 413.024 242.859C413.117 243.141 413.258 243.594 413.446 244.219C413.821 245.469 414.336 246.312 414.992 246.75C415.649 247.188 416.664 247.406 418.039 247.406C421.789 247.406 425.117 245.5 428.024 241.688C430.93 237.906 432.383 233.281 432.383 227.812C432.383 222.344 431.133 218.016 428.633 214.828C426.164 211.641 423.024 210.047 419.211 210.047C418.086 210.047 416.946 210.266 415.789 210.703C414.664 211.141 413.836 211.531 413.305 211.875C412.805 212.219 412.086 212.734 411.149 213.422C410.305 213.984 409.727 214.266 409.414 214.266C408.914 214.266 408.664 213.953 408.664 213.328C408.664 212.734 409.008 212.094 409.696 211.406C412.539 208.719 414.492 206.891 415.555 205.922C415.774 205.734 416.461 205.141 417.617 204.141C418.805 203.141 419.555 202.5 419.867 202.219C420.18 201.938 420.821 201.344 421.789 200.438C422.758 199.531 423.399 198.844 423.711 198.375C424.055 197.906 424.539 197.234 425.164 196.359C425.821 195.453 426.274 194.656 426.524 193.969C426.774 193.281 427.008 192.469 427.227 191.531C427.446 190.594 427.555 189.656 427.555 188.719C427.555 186.469 426.961 184.734 425.774 183.516C424.617 182.266 422.946 181.641 420.758 181.641C419.071 181.641 417.477 182.188 415.977 183.281C414.477 184.375 413.289 185.812 412.414 187.594C412.102 188.188 411.789 188.906 411.477 189.75C411.164 190.594 410.899 191.219 410.68 191.625C410.492 192 410.258 192.188 409.977 192.188C409.352 192.188 409.039 191.766 409.039 190.922C409.039 190.422 409.164 189.719 409.414 188.812C409.696 187.906 410.18 186.844 410.867 185.625C411.555 184.406 412.399 183.281 413.399 182.25C414.399 181.188 415.742 180.297 417.43 179.578C419.117 178.828 420.992 178.453 423.055 178.453C426.336 178.453 429.071 179.266 431.258 180.891C433.477 182.516 434.586 184.875 434.586 187.969C434.586 190.094 433.977 192.062 432.758 193.875C431.571 195.656 429.836 197.469 427.555 199.312C426.399 200.312 424.133 202.094 420.758 204.656C420.633 204.75 420.461 204.875 420.242 205.031C420.024 205.156 419.852 205.266 419.727 205.359C419.633 205.422 419.508 205.516 419.352 205.641C419.227 205.734 419.133 205.828 419.071 205.922C419.039 205.984 419.024 206.047 419.024 206.109C419.024 206.359 419.149 206.484 419.399 206.484C419.492 206.484 419.992 206.406 420.899 206.25C421.805 206.094 422.617 206.016 423.336 206.016C427.617 206.016 431.258 207.672 434.258 210.984C437.289 214.266 438.805 218.688 438.805 224.25ZM459.811 209.953V209.859C459.811 204.922 460.295 200.422 461.264 196.359C462.264 192.297 463.576 188.984 465.201 186.422C466.858 183.828 468.701 181.844 470.733 180.469C472.795 179.062 474.92 178.359 477.108 178.359C479.295 178.359 481.404 179.062 483.436 180.469C485.498 181.844 487.342 183.828 488.967 186.422C490.592 188.984 491.889 192.312 492.858 196.406C493.858 200.469 494.358 204.984 494.358 209.953C494.358 214.922 493.858 219.453 492.858 223.547C491.889 227.609 490.592 230.938 488.967 233.531C487.342 236.125 485.498 238.125 483.436 239.531C481.404 240.938 479.295 241.641 477.108 241.641C474.92 241.641 472.795 240.938 470.733 239.531C468.701 238.125 466.858 236.125 465.201 233.531C463.576 230.938 462.264 227.609 461.264 223.547C460.295 219.453 459.811 214.922 459.811 209.953ZM466.842 209.953V210.047C466.842 219.891 467.608 227.219 469.139 232.031C470.701 236.844 473.358 239.25 477.108 239.25C480.858 239.25 483.498 236.844 485.029 232.031C486.592 227.188 487.373 219.828 487.373 209.953C487.373 200.078 486.592 192.734 485.029 187.922C483.498 183.078 480.858 180.656 477.108 180.656C473.358 180.656 470.701 183.078 469.139 187.922C467.608 192.734 466.842 200.078 466.842 209.953ZM528.462 221.203V221.297C528.462 225.422 527.446 229.141 525.415 232.453C523.384 235.734 520.696 238.562 517.353 240.938C514.603 242.875 511.478 244.391 507.978 245.484C504.509 246.578 501.868 247.125 500.056 247.125C499.743 247.125 499.462 247.031 499.212 246.844C498.993 246.688 498.884 246.453 498.884 246.141C498.884 245.484 499.884 245 501.884 244.688C507.634 243.75 512.431 241.453 516.274 237.797C518.243 236.016 519.79 233.875 520.915 231.375C522.04 228.875 522.603 226.219 522.603 223.406C522.603 217.375 520.181 213.047 515.337 210.422C511.837 208.391 506.899 207.312 500.524 207.188C499.649 207.188 499.212 206.828 499.212 206.109C499.212 205.359 499.337 204.5 499.587 203.531C500.181 201 501.103 197.391 502.353 192.703C503.603 188.016 504.478 184.609 504.978 182.484C505.196 181.359 505.415 180.672 505.634 180.422C505.884 180.172 506.337 180 506.993 179.906C508.681 179.688 511.696 179.438 516.04 179.156C520.384 178.875 524.149 178.734 527.337 178.734C527.962 178.734 528.274 178.969 528.274 179.438C528.274 180.031 527.868 181.688 527.056 184.406C526.962 184.656 526.774 184.828 526.493 184.922C526.212 185.016 525.524 185.109 524.431 185.203C519.868 185.516 514.915 185.703 509.571 185.766C508.29 185.797 507.384 186.062 506.853 186.562C506.321 187.062 505.884 187.984 505.54 189.328C503.728 196.391 502.821 199.938 502.821 199.969C502.821 200.844 503.603 201.328 505.165 201.422C512.54 201.859 518.071 203.516 521.759 206.391C526.228 209.766 528.462 214.703 528.462 221.203ZM584.436 220.031H579.561C578.936 220.031 578.514 220.141 578.296 220.359C578.108 220.547 578.014 220.984 578.014 221.672V231.75C578.014 234.156 578.264 235.734 578.764 236.484C579.264 237.234 580.389 237.672 582.139 237.797C583.233 237.922 583.967 238.094 584.342 238.312C584.717 238.5 584.905 238.812 584.905 239.25C584.905 239.688 584.733 239.984 584.389 240.141C584.077 240.297 583.546 240.375 582.796 240.375C582.452 240.375 581.264 240.312 579.233 240.188C577.202 240.062 575.702 240 574.733 240C573.264 240 571.608 240.062 569.764 240.188C567.952 240.312 566.796 240.375 566.296 240.375C565.733 240.375 565.327 240.281 565.077 240.094C564.858 239.938 564.749 239.625 564.749 239.156C564.749 238.688 565.014 238.375 565.546 238.219C566.077 238.031 567.186 237.859 568.874 237.703C570.186 237.609 571.046 237.203 571.452 236.484C571.858 235.766 572.061 234.25 572.061 231.938V221.672C572.061 220.953 571.952 220.5 571.733 220.312C571.514 220.125 571.046 220.031 570.327 220.031H555.186H551.624C550.467 220.031 549.889 219.609 549.889 218.766C549.889 217.578 549.936 216.781 550.03 216.375C550.155 215.938 550.514 215.266 551.108 214.359C553.796 209.828 557.842 203 563.249 193.875C568.686 184.719 572.749 177.859 575.436 173.297C576.53 171.422 577.171 170.422 577.358 170.297C577.452 170.234 577.546 170.203 577.639 170.203H579.186C579.624 170.203 579.749 170.422 579.561 170.859C579.374 171.266 579.077 171.812 578.671 172.5C578.296 173.156 578.046 173.609 577.921 173.859C567.577 191.297 560.124 203.75 555.561 211.219C554.217 213.594 553.546 215.219 553.546 216.094C553.546 216.531 553.921 216.75 554.671 216.75H570.421C571.108 216.75 571.546 216.641 571.733 216.422C571.952 216.203 572.061 215.703 572.061 214.922V195.469C572.061 195.062 572.124 194.781 572.249 194.625C572.374 194.469 572.655 194.328 573.092 194.203C573.561 193.984 574.327 193.703 575.389 193.359C576.483 193.016 577.139 192.844 577.358 192.844C577.796 192.844 578.014 193.328 578.014 194.297V215.156C578.014 215.781 578.108 216.203 578.296 216.422C578.514 216.641 578.905 216.75 579.467 216.75H584.436C584.842 216.75 585.124 216.859 585.28 217.078C585.436 217.266 585.514 217.641 585.514 218.203C585.514 218.953 585.436 219.453 585.28 219.703C585.155 219.922 584.874 220.031 584.436 220.031ZM620.837 220.031H615.962C615.337 220.031 614.916 220.141 614.697 220.359C614.509 220.547 614.416 220.984 614.416 221.672V231.75C614.416 234.156 614.666 235.734 615.166 236.484C615.666 237.234 616.791 237.672 618.541 237.797C619.634 237.922 620.369 238.094 620.744 238.312C621.119 238.5 621.306 238.812 621.306 239.25C621.306 239.688 621.134 239.984 620.791 240.141C620.478 240.297 619.947 240.375 619.197 240.375C618.853 240.375 617.666 240.312 615.634 240.188C613.603 240.062 612.103 240 611.134 240C609.666 240 608.009 240.062 606.166 240.188C604.353 240.312 603.197 240.375 602.697 240.375C602.134 240.375 601.728 240.281 601.478 240.094C601.259 239.938 601.15 239.625 601.15 239.156C601.15 238.688 601.416 238.375 601.947 238.219C602.478 238.031 603.587 237.859 605.275 237.703C606.587 237.609 607.447 237.203 607.853 236.484C608.259 235.766 608.462 234.25 608.462 231.938V221.672C608.462 220.953 608.353 220.5 608.134 220.312C607.916 220.125 607.447 220.031 606.728 220.031H591.587H588.025C586.869 220.031 586.291 219.609 586.291 218.766C586.291 217.578 586.337 216.781 586.431 216.375C586.556 215.938 586.916 215.266 587.509 214.359C590.197 209.828 594.244 203 599.65 193.875C605.087 184.719 609.15 177.859 611.837 173.297C612.931 171.422 613.572 170.422 613.759 170.297C613.853 170.234 613.947 170.203 614.041 170.203H615.587C616.025 170.203 616.15 170.422 615.962 170.859C615.775 171.266 615.478 171.812 615.072 172.5C614.697 173.156 614.447 173.609 614.322 173.859C603.978 191.297 596.525 203.75 591.962 211.219C590.619 213.594 589.947 215.219 589.947 216.094C589.947 216.531 590.322 216.75 591.072 216.75H606.822C607.509 216.75 607.947 216.641 608.134 216.422C608.353 216.203 608.462 215.703 608.462 214.922V195.469C608.462 195.062 608.525 194.781 608.65 194.625C608.775 194.469 609.056 194.328 609.494 194.203C609.962 193.984 610.728 193.703 611.791 193.359C612.884 193.016 613.541 192.844 613.759 192.844C614.197 192.844 614.416 193.328 614.416 194.297V215.156C614.416 215.781 614.509 216.203 614.697 216.422C614.916 216.641 615.306 216.75 615.869 216.75H620.837C621.244 216.75 621.525 216.859 621.681 217.078C621.837 217.266 621.916 217.641 621.916 218.203C621.916 218.953 621.837 219.453 621.681 219.703C621.556 219.922 621.275 220.031 620.837 220.031Z" fill="#38302A"/>
</svg>
