<svg width="720" height="440" viewBox="0 0 720 440" fill="none" xmlns="http://www.w3.org/2000/svg">
<rect width="720" height="440" fill="#38302A"/>
<path d="M148.635 204.576L148.635 240.404C148.635 248.896 149.033 253.408 154.473 253.408L154.473 255L132.048 255L132.048 253.408C137.489 253.408 137.887 248.896 137.887 240.404L137.887 207.495C137.887 197.411 134.702 191.572 125.413 191.572C119.575 191.572 113.206 194.624 107.5 199.136L107.5 240.404C107.5 248.896 107.898 253.408 113.338 253.408L113.338 255L90.9129 255L90.9129 253.408C96.3534 253.408 96.7514 248.896 96.7514 240.404L96.7514 202.984C96.7515 194.491 94.4956 191.705 89.984 190.511L89.984 188.918L106.438 184.141L107.5 184.141L107.5 195.553C114.532 188.786 123.158 183.876 131.783 183.876C142.133 183.876 148.635 191.174 148.635 204.576ZM209.634 238.281L212.022 239.74C207.378 247.171 199.284 256.592 185.218 256.592C167.57 256.592 156.821 241.067 156.821 221.428C156.822 199.401 171.02 183.876 188.27 183.876C202.601 183.876 212.951 194.226 211.89 211.742L168.366 211.742C168.233 213.334 168.101 214.926 168.101 216.651C168.101 235.096 175.531 249.294 190.26 249.294C199.284 249.294 205.388 243.588 209.634 238.281ZM187.739 187.326C177.522 187.326 171.02 196.084 168.897 207.761L200.478 207.761C201.407 194.624 197.426 187.326 187.739 187.326ZM310.091 204.576L310.091 240.404C310.091 248.896 310.489 253.408 315.929 253.408L315.929 255L293.504 255L293.504 253.408C298.944 253.408 299.342 248.896 299.342 240.404L299.342 207.496C299.342 197.411 296.158 191.572 286.869 191.572C281.031 191.572 275.192 194.757 270.017 199.268C270.282 200.993 270.415 202.719 270.415 204.576L270.415 240.404C270.415 248.896 270.813 253.408 276.254 253.408L276.254 255L253.828 255L253.828 253.408C259.269 253.408 259.667 248.896 259.667 240.404L259.667 207.495C259.667 197.411 256.482 191.572 247.326 191.572C241.488 191.572 235.915 194.624 230.739 199.003L230.739 240.404C230.739 248.896 231.138 253.408 236.578 253.408L236.578 255L214.153 255L214.153 253.408C219.593 253.408 219.991 248.896 219.991 240.404L219.991 202.984C219.991 194.491 217.735 191.705 213.224 190.511L213.224 188.918L229.678 184.141L230.739 184.141L230.739 195.42C237.241 188.786 245.07 183.876 253.563 183.876C261.657 183.876 267.23 188.255 269.486 196.349C276.121 189.184 284.348 183.876 293.238 183.876C303.589 183.876 310.091 191.174 310.091 204.576ZM390.157 187.061L390.157 185.468L408.469 185.468L408.469 187.061C404.488 187.857 401.171 191.97 396.261 206.832L379.807 256.327L377.153 256.327L360.699 208.292L343.316 256.327L340.662 256.327L321.289 201.259C317.706 190.909 315.45 187.857 310.939 187.061L310.939 185.468L334.956 185.468L334.956 187.061C328.985 187.591 329.118 190.909 331.374 197.676L345.572 238.944L358.576 202.32L358.178 201.126C354.595 190.909 352.207 187.857 347.695 187.061L347.695 185.468L371.58 185.468L371.58 187.061C365.476 187.591 365.874 190.909 368.263 197.676L381.93 238.281L392.413 205.903C396.924 192.236 396.394 187.724 390.157 187.061ZM435.605 256.592C416.762 256.592 403.493 242.792 403.493 220.5C403.493 198.472 417.293 183.876 435.87 183.876C454.58 183.876 467.85 197.676 467.85 219.969C467.85 241.996 454.049 256.592 435.605 256.592ZM435.87 253.142C449.272 253.142 456.172 240.271 456.172 220.234C456.172 200.994 449.007 187.326 435.605 187.326C422.203 187.326 415.17 200.197 415.17 220.234C415.17 239.475 422.468 253.142 435.87 253.142ZM503.704 256.592C484.861 256.592 471.592 242.792 471.592 220.5C471.592 198.472 485.392 183.876 503.969 183.876C522.679 183.876 535.949 197.676 535.949 219.969C535.949 241.996 522.148 256.592 503.704 256.592ZM503.969 253.142C517.371 253.142 524.272 240.271 524.272 220.234C524.272 200.994 517.106 187.326 503.704 187.326C490.302 187.326 483.269 200.197 483.269 220.234C483.269 239.475 490.567 253.142 503.969 253.142ZM598.475 151.233L598.475 238.413C598.475 246.906 600.598 250.09 605.242 251.417L605.242 253.01L591.044 256.592L589.982 256.592L588.124 245.181C582.684 251.815 575.386 256.592 566.23 256.592C550.572 256.592 539.691 241.863 539.691 221.561C539.691 198.34 554.287 183.876 571.936 183.876C578.04 183.876 583.347 185.601 587.726 188.255L587.726 169.014C587.726 160.522 585.471 157.735 580.959 156.541L580.959 154.949L597.413 151.233L598.475 151.233ZM571.405 250.09C578.172 250.09 583.613 246.242 587.726 241.465L587.726 206.169C587.726 194.359 581.755 187.326 571.803 187.326C557.87 187.326 551.235 201.126 551.235 218.376C551.235 235.494 558.003 250.09 571.405 250.09Z" fill="#FFFCF5"/>
<path d="M620.765 144C618.582 144 616.449 144.647 614.634 145.86C612.819 147.072 611.405 148.796 610.57 150.812C609.734 152.829 609.516 155.048 609.942 157.188C610.367 159.329 611.418 161.296 612.962 162.839C614.505 164.382 616.471 165.433 618.612 165.859C620.753 166.285 622.972 166.066 624.988 165.231C627.005 164.396 628.728 162.981 629.941 161.167C631.153 159.352 631.801 157.218 631.801 155.036C631.798 152.11 630.634 149.305 628.565 147.236C626.496 145.167 623.691 144.003 620.765 144ZM620.765 164.373C618.918 164.373 617.113 163.826 615.577 162.8C614.042 161.774 612.845 160.315 612.138 158.609C611.431 156.903 611.246 155.025 611.607 153.214C611.967 151.403 612.856 149.739 614.162 148.433C615.468 147.127 617.132 146.238 618.943 145.877C620.755 145.517 622.632 145.702 624.338 146.409C626.045 147.115 627.503 148.312 628.529 149.848C629.555 151.383 630.103 153.189 630.103 155.036C630.1 157.511 629.115 159.885 627.365 161.635C625.614 163.386 623.241 164.371 620.765 164.373ZM623.215 156.331C623.882 155.974 624.411 155.404 624.717 154.712C625.023 154.021 625.09 153.246 624.906 152.512C624.722 151.778 624.298 151.127 623.702 150.661C623.105 150.196 622.371 149.943 621.614 149.942H618.218C617.993 149.942 617.777 150.032 617.618 150.191C617.459 150.35 617.37 150.566 617.37 150.791V159.28C617.37 159.505 617.459 159.721 617.618 159.88C617.777 160.039 617.993 160.129 618.218 160.129C618.444 160.129 618.659 160.039 618.819 159.88C618.978 159.721 619.067 159.505 619.067 159.28V156.733H621.443L623.459 159.751C623.584 159.939 623.778 160.069 623.999 160.113C624.22 160.157 624.45 160.112 624.637 159.987C624.824 159.862 624.955 159.667 624.999 159.447C625.043 159.226 624.998 158.996 624.873 158.809L623.215 156.331ZM619.067 151.64H621.614C622.064 151.64 622.496 151.819 622.814 152.137C623.133 152.456 623.312 152.888 623.312 153.338C623.312 153.788 623.133 154.22 622.814 154.538C622.496 154.857 622.064 155.036 621.614 155.036H619.067V151.64Z" fill="#FFFCF5"/>
<path d="M295.752 313.324V301.945C295.752 301.484 295.686 301.16 295.553 300.973C295.42 300.777 295.151 300.676 294.744 300.668C294.69 300.668 294.619 300.672 294.533 300.68C294.455 300.68 294.389 300.68 294.334 300.68C294.287 300.68 294.248 300.676 294.217 300.668C294.139 300.645 294.1 300.582 294.1 300.48C294.1 300.316 294.397 300.164 294.99 300.023C296.061 299.75 297.229 299.613 298.494 299.613C300.135 299.613 301.397 299.887 302.28 300.434C302.78 300.746 303.151 301.141 303.393 301.617C303.643 302.086 303.768 302.594 303.768 303.141C303.768 303.977 303.49 304.676 302.936 305.238C302.389 305.793 301.674 306.207 300.791 306.48V306.527C301.252 306.613 301.612 306.711 301.869 306.82C302.682 307.117 303.334 307.586 303.826 308.227C304.319 308.867 304.565 309.691 304.565 310.699C304.565 312.074 304.131 313.172 303.264 313.992C302.42 314.727 301.291 315.094 299.877 315.094C299.533 315.094 299.006 315.078 298.295 315.047C297.592 315.016 297.073 315 296.737 315C296.448 315 296.08 315.016 295.635 315.047C295.19 315.078 294.908 315.094 294.791 315.094C294.471 315.094 294.311 314.992 294.311 314.789C294.311 314.734 294.323 314.691 294.346 314.66C294.377 314.621 294.42 314.594 294.475 314.578C294.537 314.555 294.592 314.539 294.639 314.531C294.694 314.516 294.764 314.5 294.85 314.484C294.936 314.469 294.998 314.457 295.037 314.449C295.358 314.395 295.557 314.297 295.635 314.156C295.713 314.016 295.752 313.738 295.752 313.324ZM297.405 301.195V305.883C297.405 306.094 297.448 306.223 297.533 306.27C297.627 306.316 297.834 306.34 298.155 306.34C299.045 306.34 299.78 306.227 300.358 306C301.397 305.586 301.916 304.656 301.916 303.211C301.916 302.273 301.67 301.531 301.178 300.984C300.686 300.438 299.99 300.164 299.092 300.164C298.405 300.164 297.951 300.238 297.733 300.387C297.514 300.527 297.405 300.797 297.405 301.195ZM297.405 307.277V312.738C297.405 313.371 297.541 313.832 297.815 314.121C298.096 314.402 298.608 314.543 299.35 314.543C300.569 314.543 301.459 314.121 302.022 313.277C302.498 312.613 302.737 311.699 302.737 310.535C302.737 309.473 302.44 308.633 301.846 308.016C301.143 307.266 300.127 306.891 298.799 306.891C298.182 306.891 297.799 306.914 297.651 306.961C297.502 307 297.42 307.105 297.405 307.277ZM306.423 313.102V306.961C306.423 306.484 306.356 306.176 306.224 306.035C306.099 305.887 305.853 305.812 305.485 305.812C305.274 305.812 305.169 305.746 305.169 305.613C305.169 305.441 305.313 305.312 305.603 305.227C306.118 305.094 306.567 304.824 306.95 304.418C306.997 304.371 307.052 304.312 307.114 304.242C307.177 304.172 307.22 304.121 307.243 304.09C307.274 304.059 307.31 304.027 307.349 303.996C307.388 303.965 307.419 303.945 307.442 303.938C307.474 303.922 307.509 303.914 307.548 303.914C307.657 303.914 307.724 304.035 307.747 304.277C307.763 304.457 307.77 304.809 307.77 305.332C307.77 305.762 307.802 305.977 307.864 305.977C307.919 305.977 307.978 305.93 308.04 305.836C308.103 305.742 308.185 305.605 308.286 305.426C308.388 305.246 308.485 305.094 308.579 304.969C309.071 304.281 309.626 303.938 310.243 303.938C310.642 303.938 310.95 304.074 311.169 304.348C311.395 304.613 311.509 304.98 311.509 305.449C311.509 305.832 311.431 306.137 311.274 306.363C311.126 306.582 310.899 306.691 310.595 306.691C310.095 306.691 309.817 306.406 309.763 305.836C309.731 305.352 309.618 305.109 309.423 305.109C308.97 305.109 308.595 305.504 308.298 306.293C308.04 306.902 307.911 307.516 307.911 308.133V312.914C307.911 313.531 307.958 313.941 308.052 314.145C308.145 314.34 308.403 314.465 308.825 314.52C309.106 314.559 309.306 314.602 309.423 314.648C309.548 314.688 309.61 314.75 309.61 314.836C309.61 314.938 309.575 315.004 309.505 315.035C309.435 315.074 309.294 315.094 309.083 315.094L308.52 315.047C308.145 315.016 307.692 315 307.161 315C306.747 315 306.368 315.016 306.024 315.047C305.688 315.078 305.509 315.094 305.485 315.094C305.196 315.094 305.052 315.016 305.052 314.859C305.052 314.734 305.091 314.656 305.169 314.625C305.247 314.586 305.384 314.551 305.579 314.52C305.946 314.488 306.177 314.387 306.27 314.215C306.372 314.043 306.423 313.672 306.423 313.102ZM314.093 305.039V311.906C314.093 312.617 314.273 313.188 314.633 313.617C314.992 314.047 315.519 314.262 316.215 314.262C317.043 314.262 317.738 313.957 318.3 313.348C318.636 312.965 318.804 312.5 318.804 311.953V305.812C318.804 305.438 318.761 305.18 318.675 305.039C318.59 304.891 318.383 304.805 318.054 304.781C317.992 304.773 317.918 304.766 317.832 304.758C317.754 304.75 317.695 304.746 317.656 304.746C317.625 304.738 317.582 304.73 317.527 304.723C317.472 304.707 317.433 304.695 317.41 304.688C317.394 304.672 317.375 304.652 317.351 304.629C317.328 304.605 317.312 304.578 317.304 304.547C317.297 304.508 317.293 304.465 317.293 304.418C317.293 304.207 317.422 304.102 317.679 304.102C317.804 304.102 317.988 304.109 318.23 304.125C318.472 304.141 318.656 304.148 318.781 304.148C318.906 304.148 319.097 304.141 319.355 304.125C319.613 304.109 319.804 304.102 319.929 304.102C320.07 304.102 320.164 304.137 320.211 304.207C320.265 304.277 320.293 304.434 320.293 304.676V305.59V312.715C320.293 313.137 320.332 313.426 320.41 313.582C320.488 313.738 320.656 313.82 320.914 313.828C321.164 313.844 321.328 313.867 321.406 313.898C321.492 313.93 321.535 313.992 321.535 314.086C321.535 314.203 321.383 314.324 321.078 314.449C320.343 314.723 319.746 314.977 319.285 315.211C319.105 315.281 319.008 315.316 318.992 315.316C318.929 315.316 318.898 315.234 318.898 315.07V313.992C318.898 313.766 318.843 313.652 318.734 313.652C318.648 313.652 318.527 313.719 318.371 313.852C318.168 314.039 318.011 314.176 317.902 314.262C317.793 314.348 317.605 314.48 317.34 314.66C317.074 314.832 316.789 314.957 316.484 315.035C316.179 315.121 315.855 315.164 315.511 315.164C314.597 315.164 313.902 314.926 313.425 314.449C312.879 313.902 312.605 313.156 312.605 312.211V305.684C312.605 305.355 312.558 305.125 312.465 304.992C312.371 304.859 312.172 304.789 311.867 304.781C311.64 304.758 311.48 304.723 311.386 304.676C311.293 304.621 311.246 304.543 311.246 304.441C311.246 304.215 311.406 304.102 311.726 304.102C311.851 304.102 312.047 304.109 312.312 304.125C312.578 304.141 312.773 304.148 312.898 304.148C312.992 304.148 313.129 304.141 313.308 304.125C313.496 304.109 313.633 304.102 313.718 304.102C313.812 304.102 313.883 304.117 313.929 304.148C313.984 304.18 314.023 304.242 314.047 304.336C314.07 304.43 314.082 304.516 314.082 304.594C314.09 304.672 314.093 304.801 314.093 304.98C314.093 305.004 314.093 305.023 314.093 305.039ZM321.94 306.82V306.797C321.94 305.875 322.272 305.164 322.936 304.664C323.6 304.164 324.405 303.914 325.35 303.914C326.217 303.914 326.858 304.043 327.272 304.301C327.342 304.355 327.389 304.496 327.413 304.723C327.428 304.863 327.436 305.16 327.436 305.613V306.27C327.413 306.652 327.334 306.844 327.202 306.844C327.116 306.844 327.049 306.809 327.002 306.738C326.955 306.66 326.885 306.492 326.791 306.234C326.698 305.969 326.608 305.738 326.522 305.543C326.358 305.191 326.163 304.926 325.936 304.746C325.717 304.559 325.424 304.465 325.057 304.465C324.534 304.465 324.092 304.625 323.733 304.945C323.373 305.266 323.194 305.664 323.194 306.141C323.194 306.258 323.205 306.375 323.229 306.492C323.26 306.602 323.291 306.699 323.323 306.785C323.354 306.871 323.409 306.965 323.487 307.066C323.573 307.168 323.639 307.254 323.686 307.324C323.741 307.387 323.83 307.465 323.955 307.559C324.088 307.652 324.182 307.723 324.237 307.77C324.291 307.816 324.401 307.891 324.565 307.992C324.737 308.086 324.85 308.148 324.905 308.18C324.959 308.211 325.084 308.281 325.28 308.391C325.475 308.492 325.596 308.559 325.643 308.59C326.002 308.801 326.299 308.992 326.534 309.164C326.776 309.336 327.026 309.555 327.284 309.82C327.541 310.078 327.733 310.375 327.858 310.711C327.991 311.047 328.057 311.422 328.057 311.836C328.057 312.906 327.705 313.75 327.002 314.367C326.299 314.984 325.397 315.293 324.295 315.293C323.694 315.293 323.116 315.203 322.561 315.023C322.452 314.992 322.319 314.945 322.163 314.883C322.022 314.812 321.932 314.594 321.893 314.227C321.893 314.133 321.889 313.941 321.881 313.652C321.873 313.355 321.87 313.102 321.87 312.891C321.87 312.383 321.889 312.043 321.928 311.871C321.975 311.699 322.053 311.613 322.163 311.613C322.217 311.613 322.26 311.629 322.291 311.66C322.323 311.684 322.35 311.738 322.373 311.824C322.405 311.902 322.432 311.988 322.455 312.082C322.479 312.176 322.518 312.32 322.573 312.516C322.627 312.703 322.69 312.891 322.76 313.078C323.135 314.18 323.768 314.73 324.659 314.73C325.252 314.73 325.741 314.547 326.123 314.18C326.506 313.812 326.698 313.332 326.698 312.738C326.698 312.527 326.67 312.328 326.616 312.141C326.561 311.945 326.506 311.781 326.452 311.648C326.397 311.516 326.291 311.371 326.135 311.215C325.987 311.059 325.873 310.945 325.795 310.875C325.725 310.797 325.577 310.688 325.35 310.547C325.123 310.406 324.979 310.32 324.916 310.289C324.854 310.25 324.694 310.156 324.436 310.008C324.038 309.797 323.729 309.621 323.51 309.48C323.299 309.34 323.049 309.141 322.76 308.883C322.479 308.617 322.272 308.316 322.139 307.98C322.006 307.645 321.94 307.258 321.94 306.82ZM328.415 306.82V306.797C328.415 305.875 328.747 305.164 329.411 304.664C330.075 304.164 330.88 303.914 331.825 303.914C332.693 303.914 333.333 304.043 333.747 304.301C333.818 304.355 333.864 304.496 333.888 304.723C333.903 304.863 333.911 305.16 333.911 305.613V306.27C333.888 306.652 333.81 306.844 333.677 306.844C333.591 306.844 333.525 306.809 333.478 306.738C333.431 306.66 333.36 306.492 333.267 306.234C333.173 305.969 333.083 305.738 332.997 305.543C332.833 305.191 332.638 304.926 332.411 304.746C332.193 304.559 331.9 304.465 331.532 304.465C331.009 304.465 330.568 304.625 330.208 304.945C329.849 305.266 329.669 305.664 329.669 306.141C329.669 306.258 329.681 306.375 329.704 306.492C329.735 306.602 329.767 306.699 329.798 306.785C329.829 306.871 329.884 306.965 329.962 307.066C330.048 307.168 330.114 307.254 330.161 307.324C330.216 307.387 330.306 307.465 330.431 307.559C330.564 307.652 330.657 307.723 330.712 307.77C330.767 307.816 330.876 307.891 331.04 307.992C331.212 308.086 331.325 308.148 331.38 308.18C331.435 308.211 331.56 308.281 331.755 308.391C331.95 308.492 332.071 308.559 332.118 308.59C332.478 308.801 332.775 308.992 333.009 309.164C333.251 309.336 333.501 309.555 333.759 309.82C334.017 310.078 334.208 310.375 334.333 310.711C334.466 311.047 334.532 311.422 334.532 311.836C334.532 312.906 334.181 313.75 333.478 314.367C332.775 314.984 331.872 315.293 330.771 315.293C330.169 315.293 329.591 315.203 329.036 315.023C328.927 314.992 328.794 314.945 328.638 314.883C328.497 314.812 328.407 314.594 328.368 314.227C328.368 314.133 328.364 313.941 328.357 313.652C328.349 313.355 328.345 313.102 328.345 312.891C328.345 312.383 328.364 312.043 328.403 311.871C328.45 311.699 328.528 311.613 328.638 311.613C328.693 311.613 328.735 311.629 328.767 311.66C328.798 311.684 328.825 311.738 328.849 311.824C328.88 311.902 328.907 311.988 328.931 312.082C328.954 312.176 328.993 312.32 329.048 312.516C329.103 312.703 329.165 312.891 329.235 313.078C329.61 314.18 330.243 314.73 331.134 314.73C331.728 314.73 332.216 314.547 332.599 314.18C332.982 313.812 333.173 313.332 333.173 312.738C333.173 312.527 333.146 312.328 333.091 312.141C333.036 311.945 332.982 311.781 332.927 311.648C332.872 311.516 332.767 311.371 332.61 311.215C332.462 311.059 332.349 310.945 332.271 310.875C332.2 310.797 332.052 310.688 331.825 310.547C331.599 310.406 331.454 310.32 331.392 310.289C331.329 310.25 331.169 310.156 330.911 310.008C330.513 309.797 330.204 309.621 329.985 309.48C329.775 309.34 329.525 309.141 329.235 308.883C328.954 308.617 328.747 308.316 328.614 307.98C328.482 307.645 328.415 307.258 328.415 306.82ZM341.828 309.023H336.93C336.687 309.023 336.523 309.059 336.437 309.129C336.351 309.199 336.308 309.332 336.308 309.527C336.308 310.949 336.594 312.098 337.164 312.973C337.742 313.848 338.504 314.285 339.449 314.285C340.558 314.285 341.312 313.852 341.711 312.984C341.75 312.906 341.789 312.82 341.828 312.727C341.875 312.633 341.91 312.559 341.933 312.504C341.957 312.449 341.984 312.395 342.015 312.34C342.047 312.285 342.074 312.246 342.098 312.223C342.129 312.199 342.16 312.188 342.191 312.188C342.301 312.188 342.355 312.285 342.355 312.48C342.355 312.707 342.234 313.074 341.992 313.582C341.703 314.105 341.297 314.523 340.773 314.836C340.258 315.141 339.699 315.293 339.098 315.293C337.746 315.293 336.672 314.789 335.875 313.781C335.078 312.766 334.68 311.445 334.68 309.82C334.68 308.844 334.808 307.969 335.066 307.195C335.324 306.422 335.668 305.805 336.098 305.344C336.527 304.875 336.996 304.52 337.504 304.277C338.019 304.035 338.551 303.914 339.098 303.914C340.074 303.914 340.859 304.262 341.453 304.957C342.055 305.652 342.355 306.574 342.355 307.723C342.355 308.34 342.332 308.711 342.285 308.836C342.238 308.961 342.086 309.023 341.828 309.023ZM336.379 307.875V307.898C336.379 308.102 336.433 308.234 336.543 308.297C336.652 308.352 336.933 308.379 337.387 308.379C337.754 308.379 338.211 308.363 338.758 308.332C339.648 308.277 340.223 308.188 340.48 308.062C340.769 307.898 340.914 307.547 340.914 307.008C340.914 306.258 340.738 305.648 340.387 305.18C340.043 304.703 339.555 304.465 338.922 304.465C338.187 304.465 337.578 304.805 337.094 305.484C336.617 306.164 336.379 306.961 336.379 307.875ZM344.284 313.348V300.363C344.284 300.059 344.237 299.855 344.143 299.754C344.049 299.645 343.838 299.566 343.51 299.52C343.315 299.496 343.186 299.473 343.124 299.449C343.061 299.418 343.03 299.363 343.03 299.285C343.03 299.145 343.143 299.039 343.37 298.969C344.284 298.656 344.87 298.426 345.128 298.277C345.417 298.113 345.592 298.031 345.655 298.031C345.733 298.031 345.772 298.152 345.772 298.395V313.488C345.772 313.848 345.842 314.09 345.983 314.215C346.124 314.332 346.413 314.434 346.85 314.52C346.975 314.543 347.061 314.562 347.108 314.578C347.163 314.586 347.217 314.613 347.272 314.66C347.327 314.699 347.354 314.75 347.354 314.812C347.354 315 347.268 315.094 347.096 315.094C347.081 315.094 346.874 315.078 346.475 315.047C346.077 315.016 345.604 315 345.057 315C344.581 315 344.151 315.016 343.768 315.047C343.385 315.078 343.174 315.094 343.135 315.094C343.065 315.094 342.999 315.07 342.936 315.023C342.874 314.977 342.842 314.906 342.842 314.812C342.842 314.648 342.987 314.551 343.276 314.52C343.713 314.473 343.991 314.371 344.108 314.215C344.225 314.059 344.284 313.77 344.284 313.348ZM347.654 306.82V306.797C347.654 305.875 347.986 305.164 348.65 304.664C349.314 304.164 350.118 303.914 351.064 303.914C351.931 303.914 352.572 304.043 352.986 304.301C353.056 304.355 353.103 304.496 353.126 304.723C353.142 304.863 353.15 305.16 353.15 305.613V306.27C353.126 306.652 353.048 306.844 352.915 306.844C352.829 306.844 352.763 306.809 352.716 306.738C352.669 306.66 352.599 306.492 352.505 306.234C352.411 305.969 352.322 305.738 352.236 305.543C352.072 305.191 351.876 304.926 351.65 304.746C351.431 304.559 351.138 304.465 350.771 304.465C350.247 304.465 349.806 304.625 349.447 304.945C349.087 305.266 348.908 305.664 348.908 306.141C348.908 306.258 348.919 306.375 348.943 306.492C348.974 306.602 349.005 306.699 349.036 306.785C349.068 306.871 349.122 306.965 349.2 307.066C349.286 307.168 349.353 307.254 349.4 307.324C349.454 307.387 349.544 307.465 349.669 307.559C349.802 307.652 349.896 307.723 349.95 307.77C350.005 307.816 350.115 307.891 350.279 307.992C350.45 308.086 350.564 308.148 350.618 308.18C350.673 308.211 350.798 308.281 350.993 308.391C351.189 308.492 351.31 308.559 351.357 308.59C351.716 308.801 352.013 308.992 352.247 309.164C352.49 309.336 352.74 309.555 352.997 309.82C353.255 310.078 353.447 310.375 353.572 310.711C353.704 311.047 353.771 311.422 353.771 311.836C353.771 312.906 353.419 313.75 352.716 314.367C352.013 314.984 351.111 315.293 350.009 315.293C349.408 315.293 348.829 315.203 348.275 315.023C348.165 314.992 348.033 314.945 347.876 314.883C347.736 314.812 347.646 314.594 347.607 314.227C347.607 314.133 347.603 313.941 347.595 313.652C347.587 313.355 347.583 313.102 347.583 312.891C347.583 312.383 347.603 312.043 347.642 311.871C347.689 311.699 347.767 311.613 347.876 311.613C347.931 311.613 347.974 311.629 348.005 311.66C348.036 311.684 348.064 311.738 348.087 311.824C348.118 311.902 348.146 311.988 348.169 312.082C348.193 312.176 348.232 312.32 348.286 312.516C348.341 312.703 348.404 312.891 348.474 313.078C348.849 314.18 349.482 314.73 350.372 314.73C350.966 314.73 351.454 314.547 351.837 314.18C352.22 313.812 352.411 313.332 352.411 312.738C352.411 312.527 352.384 312.328 352.329 312.141C352.275 311.945 352.22 311.781 352.165 311.648C352.111 311.516 352.005 311.371 351.849 311.215C351.7 311.059 351.587 310.945 351.509 310.875C351.439 310.797 351.29 310.688 351.064 310.547C350.837 310.406 350.693 310.32 350.63 310.289C350.568 310.25 350.408 310.156 350.15 310.008C349.751 309.797 349.443 309.621 349.224 309.48C349.013 309.34 348.763 309.141 348.474 308.883C348.193 308.617 347.986 308.316 347.853 307.98C347.72 307.645 347.654 307.258 347.654 306.82ZM355.91 313.008H355.934C356.371 313.008 356.688 313.199 356.883 313.582C357.078 313.957 357.176 314.391 357.176 314.883C357.176 315.797 356.816 316.805 356.098 317.906C355.777 318.406 355.543 318.734 355.395 318.891C355.254 319.047 355.121 319.125 354.996 319.125C354.871 319.125 354.809 319.055 354.809 318.914C354.809 318.859 354.844 318.777 354.914 318.668C354.984 318.566 355.09 318.418 355.23 318.223C355.379 318.027 355.5 317.855 355.594 317.707C356.062 316.996 356.297 316.309 356.297 315.645C356.297 315.527 356.258 315.43 356.18 315.352C356.102 315.273 356.027 315.223 355.957 315.199C355.887 315.176 355.766 315.141 355.594 315.094C355.133 314.977 354.902 314.648 354.902 314.109C354.902 313.805 354.992 313.547 355.172 313.336C355.352 313.117 355.598 313.008 355.91 313.008ZM363.763 313.324V301.945C363.763 301.484 363.697 301.16 363.564 300.973C363.431 300.777 363.162 300.676 362.755 300.668C362.701 300.668 362.63 300.672 362.544 300.68C362.466 300.68 362.4 300.68 362.345 300.68C362.298 300.68 362.259 300.676 362.228 300.668C362.15 300.645 362.111 300.582 362.111 300.48C362.111 300.316 362.408 300.164 363.001 300.023C364.072 299.75 365.24 299.613 366.505 299.613C368.146 299.613 369.408 299.887 370.29 300.434C370.79 300.746 371.162 301.141 371.404 301.617C371.654 302.086 371.779 302.594 371.779 303.141C371.779 303.977 371.501 304.676 370.947 305.238C370.4 305.793 369.685 306.207 368.802 306.48V306.527C369.263 306.613 369.623 306.711 369.88 306.82C370.693 307.117 371.345 307.586 371.837 308.227C372.33 308.867 372.576 309.691 372.576 310.699C372.576 312.074 372.142 313.172 371.275 313.992C370.431 314.727 369.302 315.094 367.888 315.094C367.544 315.094 367.017 315.078 366.306 315.047C365.603 315.016 365.083 315 364.748 315C364.458 315 364.091 315.016 363.646 315.047C363.201 315.078 362.919 315.094 362.802 315.094C362.482 315.094 362.322 314.992 362.322 314.789C362.322 314.734 362.333 314.691 362.357 314.66C362.388 314.621 362.431 314.594 362.486 314.578C362.548 314.555 362.603 314.539 362.65 314.531C362.705 314.516 362.775 314.5 362.861 314.484C362.947 314.469 363.009 314.457 363.048 314.449C363.369 314.395 363.568 314.297 363.646 314.156C363.724 314.016 363.763 313.738 363.763 313.324ZM365.415 301.195V305.883C365.415 306.094 365.458 306.223 365.544 306.27C365.638 306.316 365.845 306.34 366.165 306.34C367.056 306.34 367.79 306.227 368.369 306C369.408 305.586 369.927 304.656 369.927 303.211C369.927 302.273 369.681 301.531 369.189 300.984C368.697 300.438 368.001 300.164 367.103 300.164C366.415 300.164 365.962 300.238 365.744 300.387C365.525 300.527 365.415 300.797 365.415 301.195ZM365.415 307.277V312.738C365.415 313.371 365.552 313.832 365.826 314.121C366.107 314.402 366.619 314.543 367.361 314.543C368.58 314.543 369.47 314.121 370.033 313.277C370.509 312.613 370.748 311.699 370.748 310.535C370.748 309.473 370.451 308.633 369.857 308.016C369.154 307.266 368.138 306.891 366.81 306.891C366.193 306.891 365.81 306.914 365.662 306.961C365.513 307 365.431 307.105 365.415 307.277ZM380.024 309.023H375.125C374.883 309.023 374.719 309.059 374.633 309.129C374.547 309.199 374.504 309.332 374.504 309.527C374.504 310.949 374.789 312.098 375.36 312.973C375.938 313.848 376.699 314.285 377.645 314.285C378.754 314.285 379.508 313.852 379.906 312.984C379.945 312.906 379.985 312.82 380.024 312.727C380.07 312.633 380.106 312.559 380.129 312.504C380.153 312.449 380.18 312.395 380.211 312.34C380.242 312.285 380.27 312.246 380.293 312.223C380.324 312.199 380.356 312.188 380.387 312.188C380.496 312.188 380.551 312.285 380.551 312.48C380.551 312.707 380.43 313.074 380.188 313.582C379.899 314.105 379.492 314.523 378.969 314.836C378.453 315.141 377.895 315.293 377.293 315.293C375.942 315.293 374.867 314.789 374.07 313.781C373.274 312.766 372.875 311.445 372.875 309.82C372.875 308.844 373.004 307.969 373.262 307.195C373.52 306.422 373.863 305.805 374.293 305.344C374.723 304.875 375.192 304.52 375.699 304.277C376.215 304.035 376.746 303.914 377.293 303.914C378.27 303.914 379.055 304.262 379.649 304.957C380.25 305.652 380.551 306.574 380.551 307.723C380.551 308.34 380.528 308.711 380.481 308.836C380.434 308.961 380.281 309.023 380.024 309.023ZM374.574 307.875V307.898C374.574 308.102 374.629 308.234 374.738 308.297C374.848 308.352 375.129 308.379 375.582 308.379C375.949 308.379 376.406 308.363 376.953 308.332C377.844 308.277 378.418 308.188 378.676 308.062C378.965 307.898 379.11 307.547 379.11 307.008C379.11 306.258 378.934 305.648 378.582 305.18C378.238 304.703 377.75 304.465 377.117 304.465C376.383 304.465 375.774 304.805 375.289 305.484C374.813 306.164 374.574 306.961 374.574 307.875ZM382.479 313.348V300.363C382.479 300.059 382.433 299.855 382.339 299.754C382.245 299.645 382.034 299.566 381.706 299.52C381.511 299.496 381.382 299.473 381.319 299.449C381.257 299.418 381.225 299.363 381.225 299.285C381.225 299.145 381.339 299.039 381.565 298.969C382.479 298.656 383.065 298.426 383.323 298.277C383.612 298.113 383.788 298.031 383.85 298.031C383.929 298.031 383.968 298.152 383.968 298.395V313.488C383.968 313.848 384.038 314.09 384.179 314.215C384.319 314.332 384.608 314.434 385.046 314.52C385.171 314.543 385.257 314.562 385.304 314.578C385.358 314.586 385.413 314.613 385.468 314.66C385.522 314.699 385.55 314.75 385.55 314.812C385.55 315 385.464 315.094 385.292 315.094C385.276 315.094 385.069 315.078 384.671 315.047C384.272 315.016 383.8 315 383.253 315C382.776 315 382.347 315.016 381.964 315.047C381.581 315.078 381.37 315.094 381.331 315.094C381.261 315.094 381.194 315.07 381.132 315.023C381.069 314.977 381.038 314.906 381.038 314.812C381.038 314.648 381.183 314.551 381.472 314.52C381.909 314.473 382.186 314.371 382.304 314.215C382.421 314.059 382.479 313.77 382.479 313.348ZM386.529 307.535V307.512C386.529 306.918 386.677 306.348 386.974 305.801C387.279 305.246 387.705 304.793 388.252 304.441C388.806 304.09 389.416 303.914 390.08 303.914C390.556 303.914 391.123 304.074 391.779 304.395C392.029 304.504 392.334 304.559 392.693 304.559H393.935C394.224 304.559 394.439 304.594 394.58 304.664C394.728 304.727 394.802 304.859 394.802 305.062C394.802 305.219 394.763 305.332 394.685 305.402C394.607 305.465 394.447 305.496 394.205 305.496C393.947 305.496 393.763 305.488 393.654 305.473C393.365 305.473 393.22 305.512 393.22 305.59C393.22 305.621 393.228 305.664 393.244 305.719C393.259 305.766 393.283 305.84 393.314 305.941C393.353 306.043 393.384 306.133 393.408 306.211C393.541 306.648 393.607 307.145 393.607 307.699C393.607 308.082 393.56 308.457 393.466 308.824C393.373 309.191 393.224 309.551 393.021 309.902C392.826 310.246 392.545 310.543 392.177 310.793C391.818 311.043 391.396 311.215 390.912 311.309C389.732 311.637 388.978 311.887 388.65 312.059C388.322 312.23 388.158 312.449 388.158 312.715C388.158 312.91 388.232 313.074 388.38 313.207C388.529 313.332 388.693 313.418 388.873 313.465C389.052 313.512 389.228 313.535 389.4 313.535C389.595 313.535 389.888 313.527 390.279 313.512C390.677 313.496 390.986 313.488 391.205 313.488C392.548 313.488 393.521 313.734 394.123 314.227C394.724 314.719 395.025 315.457 395.025 316.441C395.025 317.16 394.775 317.812 394.275 318.398C393.775 318.984 393.13 319.434 392.341 319.746C391.552 320.066 390.716 320.227 389.834 320.227C389.42 320.227 389.009 320.176 388.603 320.074C388.197 319.973 387.806 319.816 387.431 319.605C387.056 319.402 386.752 319.105 386.517 318.715C386.283 318.332 386.166 317.887 386.166 317.379C386.166 316.613 386.533 315.988 387.267 315.504C387.377 315.426 387.509 315.34 387.666 315.246C387.822 315.16 387.943 315.09 388.029 315.035C388.115 314.988 388.158 314.953 388.158 314.93C388.158 314.906 388.142 314.875 388.111 314.836C388.088 314.797 388.045 314.746 387.982 314.684C387.92 314.621 387.861 314.562 387.806 314.508C387.752 314.445 387.673 314.367 387.572 314.273C387.478 314.18 387.4 314.102 387.338 314.039C386.775 313.508 386.494 313.172 386.494 313.031C386.494 312.969 386.502 312.914 386.517 312.867C386.541 312.812 386.564 312.77 386.588 312.738C386.611 312.699 386.654 312.656 386.716 312.609C386.787 312.555 386.845 312.516 386.892 312.492C386.939 312.461 387.025 312.41 387.15 312.34C387.275 312.27 387.377 312.211 387.455 312.164C388.384 311.742 388.849 311.48 388.849 311.379C388.849 311.355 388.826 311.332 388.779 311.309C388.732 311.285 388.65 311.246 388.533 311.191C388.423 311.137 388.314 311.07 388.205 310.992C387.088 310.195 386.529 309.043 386.529 307.535ZM390.15 311.039H390.173C390.697 311.039 391.13 310.77 391.474 310.23C391.818 309.691 391.99 308.906 391.99 307.875C391.99 306.812 391.806 305.961 391.439 305.32C391.072 304.672 390.584 304.348 389.974 304.348C389.451 304.348 389.013 304.625 388.662 305.18C388.31 305.727 388.134 306.512 388.134 307.535C388.134 308.598 388.318 309.449 388.685 310.09C389.052 310.723 389.541 311.039 390.15 311.039ZM390.361 319.652H390.384C391.298 319.652 392.06 319.406 392.67 318.914C393.326 318.359 393.654 317.648 393.654 316.781C393.654 316.477 393.603 316.211 393.502 315.984C393.408 315.758 393.279 315.574 393.115 315.434C392.951 315.301 392.748 315.191 392.505 315.105C392.263 315.027 392.017 314.977 391.767 314.953C391.517 314.922 391.232 314.906 390.912 314.906C389.873 314.906 389.154 314.961 388.755 315.07C388.396 315.266 388.107 315.566 387.888 315.973C387.67 316.379 387.56 316.773 387.56 317.156C387.56 317.906 387.814 318.508 388.322 318.961C388.838 319.422 389.517 319.652 390.361 319.652ZM397.211 302.227H397.188C396.93 302.227 396.715 302.129 396.543 301.934C396.379 301.738 396.297 301.445 396.297 301.055C396.297 300.664 396.383 300.367 396.555 300.164C396.735 299.961 396.953 299.859 397.211 299.859C397.477 299.859 397.692 299.961 397.856 300.164C398.028 300.359 398.114 300.648 398.114 301.031C398.114 301.43 398.028 301.73 397.856 301.934C397.692 302.129 397.477 302.227 397.211 302.227ZM396.461 313.277V306.668C396.461 306.309 396.399 306.066 396.274 305.941C396.149 305.809 395.875 305.707 395.453 305.637C395.282 305.613 395.196 305.535 395.196 305.402C395.196 305.277 395.418 305.141 395.864 304.992C396.364 304.812 396.86 304.539 397.352 304.172C397.555 304 397.684 303.914 397.739 303.914C397.879 303.914 397.95 304.008 397.95 304.195V305.309V313.148C397.95 313.352 397.95 313.5 397.95 313.594C397.957 313.688 397.973 313.801 397.996 313.934C398.028 314.059 398.075 314.152 398.137 314.215C398.2 314.277 398.285 314.336 398.395 314.391C398.504 314.445 398.645 314.488 398.817 314.52C399.051 314.559 399.211 314.602 399.297 314.648C399.391 314.688 399.438 314.758 399.438 314.859C399.438 315.016 399.317 315.094 399.075 315.094C399.012 315.094 398.793 315.078 398.418 315.047C398.043 315.016 397.633 315 397.188 315C396.719 315 396.297 315.016 395.922 315.047C395.547 315.078 395.344 315.094 395.313 315.094C395.227 315.094 395.153 315.07 395.09 315.023C395.028 314.977 394.996 314.914 394.996 314.836C394.996 314.672 395.149 314.566 395.453 314.52C395.899 314.465 396.176 314.363 396.285 314.215C396.403 314.066 396.461 313.754 396.461 313.277ZM402.374 305.039V311.906C402.374 312.617 402.554 313.188 402.913 313.617C403.272 314.047 403.8 314.262 404.495 314.262C405.323 314.262 406.019 313.957 406.581 313.348C406.917 312.965 407.085 312.5 407.085 311.953V305.812C407.085 305.438 407.042 305.18 406.956 305.039C406.87 304.891 406.663 304.805 406.335 304.781C406.272 304.773 406.198 304.766 406.112 304.758C406.034 304.75 405.976 304.746 405.937 304.746C405.905 304.738 405.862 304.73 405.808 304.723C405.753 304.707 405.714 304.695 405.69 304.688C405.675 304.672 405.655 304.652 405.632 304.629C405.608 304.605 405.593 304.578 405.585 304.547C405.577 304.508 405.573 304.465 405.573 304.418C405.573 304.207 405.702 304.102 405.96 304.102C406.085 304.102 406.269 304.109 406.511 304.125C406.753 304.141 406.937 304.148 407.062 304.148C407.187 304.148 407.378 304.141 407.636 304.125C407.894 304.109 408.085 304.102 408.21 304.102C408.351 304.102 408.444 304.137 408.491 304.207C408.546 304.277 408.573 304.434 408.573 304.676V305.59V312.715C408.573 313.137 408.612 313.426 408.69 313.582C408.769 313.738 408.937 313.82 409.194 313.828C409.444 313.844 409.608 313.867 409.687 313.898C409.772 313.93 409.815 313.992 409.815 314.086C409.815 314.203 409.663 314.324 409.358 314.449C408.624 314.723 408.026 314.977 407.565 315.211C407.386 315.281 407.288 315.316 407.272 315.316C407.21 315.316 407.179 315.234 407.179 315.07V313.992C407.179 313.766 407.124 313.652 407.015 313.652C406.929 313.652 406.808 313.719 406.651 313.852C406.448 314.039 406.292 314.176 406.183 314.262C406.073 314.348 405.886 314.48 405.62 314.66C405.355 314.832 405.069 314.957 404.765 315.035C404.46 315.121 404.136 315.164 403.792 315.164C402.878 315.164 402.183 314.926 401.706 314.449C401.159 313.902 400.886 313.156 400.886 312.211V305.684C400.886 305.355 400.839 305.125 400.745 304.992C400.651 304.859 400.452 304.789 400.147 304.781C399.921 304.758 399.761 304.723 399.667 304.676C399.573 304.621 399.526 304.543 399.526 304.441C399.526 304.215 399.687 304.102 400.007 304.102C400.132 304.102 400.327 304.109 400.593 304.125C400.858 304.141 401.054 304.148 401.179 304.148C401.272 304.148 401.409 304.141 401.589 304.125C401.776 304.109 401.913 304.102 401.999 304.102C402.093 304.102 402.163 304.117 402.21 304.148C402.265 304.18 402.304 304.242 402.327 304.336C402.351 304.43 402.362 304.516 402.362 304.594C402.37 304.672 402.374 304.801 402.374 304.98C402.374 305.004 402.374 305.023 402.374 305.039ZM411.322 313.148V306.691C411.322 306.301 411.279 306.055 411.193 305.953C411.107 305.852 410.896 305.789 410.56 305.766C410.537 305.766 410.506 305.766 410.467 305.766C410.427 305.758 410.396 305.754 410.373 305.754C410.357 305.754 410.334 305.754 410.302 305.754C410.271 305.746 410.248 305.742 410.232 305.742C410.217 305.734 410.197 305.727 410.174 305.719C410.15 305.711 410.131 305.703 410.115 305.695C410.107 305.68 410.095 305.668 410.08 305.66C410.072 305.645 410.064 305.629 410.056 305.613C410.056 305.59 410.056 305.566 410.056 305.543C410.056 305.426 410.217 305.305 410.537 305.18C411.248 304.852 411.791 304.516 412.166 304.172C412.369 304 412.49 303.914 412.529 303.914C412.638 303.914 412.693 304.008 412.693 304.195V304.898C412.693 305.203 412.701 305.398 412.717 305.484C412.732 305.57 412.763 305.613 412.81 305.613C412.849 305.613 412.896 305.602 412.951 305.578C413.006 305.547 413.076 305.5 413.162 305.438C413.248 305.375 413.322 305.32 413.385 305.273C413.447 305.219 413.537 305.141 413.654 305.039C413.779 304.938 413.877 304.859 413.947 304.805C414.681 304.289 415.345 304.031 415.939 304.031C416.111 304.031 416.275 304.043 416.431 304.066C416.588 304.082 416.728 304.117 416.853 304.172C416.986 304.219 417.103 304.266 417.205 304.312C417.306 304.352 417.4 304.414 417.486 304.5C417.58 304.578 417.654 304.645 417.709 304.699C417.771 304.746 417.834 304.82 417.896 304.922C417.967 305.016 418.013 305.082 418.037 305.121C418.068 305.16 418.111 305.23 418.166 305.332C418.22 305.426 418.252 305.48 418.26 305.496C418.361 305.652 418.443 305.73 418.506 305.73C418.537 305.73 418.631 305.668 418.787 305.543C418.818 305.512 418.916 305.426 419.08 305.285C419.244 305.145 419.377 305.035 419.478 304.957C419.58 304.871 419.732 304.762 419.935 304.629C420.138 304.496 420.326 304.395 420.498 304.324C420.677 304.246 420.892 304.18 421.142 304.125C421.392 304.062 421.642 304.031 421.892 304.031C422.642 304.031 423.263 304.254 423.756 304.699C424.334 305.184 424.623 305.898 424.623 306.844V313.242C424.623 313.68 424.677 313.984 424.787 314.156C424.896 314.328 425.123 314.449 425.467 314.52C425.865 314.613 426.064 314.719 426.064 314.836C426.064 315.008 425.943 315.094 425.701 315.094C425.568 315.094 425.279 315.078 424.834 315.047C424.396 315.016 424.037 315 423.756 315C423.49 315 423.15 315.016 422.736 315.047C422.322 315.078 422.049 315.094 421.916 315.094C421.642 315.094 421.506 315.008 421.506 314.836C421.506 314.688 421.666 314.582 421.986 314.52C422.478 314.434 422.795 314.305 422.935 314.133C423.084 313.953 423.158 313.594 423.158 313.055V307.148C423.158 306.422 422.974 305.875 422.607 305.508C422.24 305.133 421.744 304.945 421.119 304.945C420.439 304.945 419.873 305.152 419.42 305.566C418.951 305.988 418.717 306.523 418.717 307.172V313.395C418.717 313.832 418.767 314.117 418.869 314.25C418.978 314.375 419.263 314.465 419.724 314.52C419.896 314.543 420.013 314.574 420.076 314.613C420.146 314.652 420.181 314.719 420.181 314.812C420.181 315 420.037 315.094 419.748 315.094C419.638 315.094 419.377 315.078 418.963 315.047C418.556 315.016 418.22 315 417.955 315C417.674 315 417.33 315.016 416.924 315.047C416.517 315.078 416.252 315.094 416.127 315.094C415.869 315.094 415.74 315.023 415.74 314.883C415.74 314.695 415.877 314.574 416.15 314.52C416.635 314.434 416.935 314.312 417.052 314.156C417.17 314 417.228 313.633 417.228 313.055V307.488C417.228 306.746 417.119 306.172 416.9 305.766C416.572 305.219 416.076 304.945 415.412 304.945C414.732 304.945 414.123 305.168 413.584 305.613C413.052 306.074 412.787 306.637 412.787 307.301V313.488C412.787 313.855 412.834 314.113 412.927 314.262C413.021 314.402 413.224 314.488 413.537 314.52C413.584 314.527 413.642 314.539 413.713 314.555C413.783 314.562 413.834 314.57 413.865 314.578C413.896 314.586 413.931 314.598 413.97 314.613C414.017 314.621 414.049 314.633 414.064 314.648C414.088 314.656 414.107 314.672 414.123 314.695C414.146 314.711 414.162 314.734 414.17 314.766C414.177 314.789 414.181 314.82 414.181 314.859C414.181 315.016 414.068 315.094 413.842 315.094C413.802 315.094 413.709 315.086 413.56 315.07C413.412 315.055 413.185 315.039 412.881 315.023C412.576 315.008 412.209 315 411.779 315C411.467 315 411.166 315.016 410.877 315.047C410.595 315.078 410.424 315.094 410.361 315.094C410.08 315.094 409.939 315 409.939 314.812C409.939 314.742 409.978 314.68 410.056 314.625C410.135 314.57 410.228 314.535 410.338 314.52C410.752 314.488 411.017 314.383 411.135 314.203C411.26 314.016 411.322 313.664 411.322 313.148Z" fill="#FFFCF5"/>
</svg>
