<svg width="532" height="106" viewBox="0 0 532 106" fill="none" xmlns="http://www.w3.org/2000/svg">
<path d="M58.6508 53.343L58.6508 89.1704C58.6508 97.6629 59.0489 102.174 64.4894 102.174V103.767H42.0641V102.174C47.5045 102.174 47.9026 97.6629 47.9026 89.1704L47.9026 56.2623C47.9026 46.1775 44.718 40.339 35.4294 40.339C29.5908 40.339 23.2215 43.3909 17.5156 47.9025L17.5156 89.1704C17.5156 97.6629 17.9137 102.174 23.3542 102.174L23.3542 103.767H0.928849L0.928849 102.174C6.36931 102.174 6.7674 97.6629 6.7674 89.1704L6.7674 51.7507C6.76741 43.2582 4.5116 40.4717 0 39.2774L2.78411e-07 37.6851L16.4541 32.9081H17.5156L17.5156 44.3198C24.5484 37.5524 33.1736 32.6427 41.7987 32.6427C52.1488 32.6427 58.6509 39.9409 58.6508 53.343Z" fill="#FFFCF5"/>
<path d="M122.304 87.0474L124.692 88.507C120.048 95.9379 111.953 105.359 97.8879 105.359C80.2396 105.359 69.4913 89.8339 69.4913 70.1952C69.4913 48.1679 83.6896 32.6427 100.94 32.6427C115.271 32.6427 125.621 42.9929 124.559 60.5085L81.0357 60.5085C80.903 62.1008 80.7703 63.6932 80.7703 65.4182C80.7703 83.8627 88.2012 98.061 102.93 98.061C111.953 98.061 118.057 92.3551 122.304 87.0474ZM100.409 36.0928C90.1916 36.0928 83.6896 44.8506 81.5665 56.5277L113.148 56.5277C114.077 43.391 110.096 36.0928 100.409 36.0928Z" fill="#FFFCF5"/>
<path d="M225.414 53.343L225.414 89.1705C225.414 97.6629 225.812 102.175 231.253 102.175V103.767H208.828V102.175C214.268 102.175 214.666 97.6629 214.666 89.1705V56.2623C214.666 46.1775 211.481 40.339 202.193 40.339C196.354 40.339 190.516 43.5237 185.341 48.0353C185.606 49.7603 185.739 51.4853 185.739 53.343V89.1705C185.739 97.6629 186.137 102.175 191.577 102.175V103.767H169.152V102.175C174.592 102.175 174.991 97.6629 174.991 89.1705V56.2623C174.991 46.1775 171.806 40.339 162.65 40.339C156.811 40.339 151.238 43.391 146.063 47.7699L146.063 89.1705C146.063 97.6629 146.461 102.174 151.902 102.174V103.767H129.476V102.174C134.917 102.175 135.315 97.6629 135.315 89.1705L135.315 51.7507C135.315 43.2583 133.059 40.4717 128.548 39.2774V37.6851L145.002 32.9081H146.063V44.1871C152.565 37.5524 160.394 32.6427 168.887 32.6427C176.981 32.6427 182.554 37.0216 184.81 45.116C191.445 37.9505 199.672 32.6427 208.562 32.6427C218.912 32.6427 225.414 39.9409 225.414 53.343Z" fill="#FFFCF5"/>
<path d="M308.135 35.8274V34.2351H326.446V35.8274C322.466 36.6236 319.148 40.7371 314.239 55.5989L297.784 105.094H295.131L278.677 57.0585L261.294 105.094H258.64L239.266 50.0257C235.684 39.6755 233.428 36.6236 228.916 35.8274V34.2351L252.934 34.2351V35.8274C246.963 36.3582 247.095 39.6755 249.351 46.4429L263.549 87.7109L276.553 51.0872L276.155 49.893C272.573 39.6755 270.184 36.6236 265.673 35.8274V34.2351H289.557V35.8274C283.454 36.3582 283.852 39.6755 286.24 46.4429L299.908 87.0474L310.39 54.67C314.902 41.0025 314.371 36.4909 308.135 35.8274Z" fill="#FFFCF5"/>
<path d="M356.236 105.359C337.394 105.359 324.124 91.559 324.124 69.2664C324.124 47.2391 337.925 32.6428 356.502 32.6428C375.212 32.6428 388.481 46.443 388.481 68.7356C388.481 90.7628 374.681 105.359 356.236 105.359ZM356.502 101.909C369.904 101.909 376.804 89.0378 376.804 69.001C376.804 49.7603 369.638 36.0928 356.236 36.0928C342.834 36.0928 335.801 48.9641 335.801 69.001C335.801 88.2416 343.1 101.909 356.502 101.909Z" fill="#FFFCF5"/>
<path d="M426.989 105.359C408.147 105.359 394.877 91.559 394.877 69.2664C394.877 47.2391 408.678 32.6428 427.255 32.6428C445.965 32.6428 459.234 46.443 459.234 68.7356C459.234 90.7629 445.434 105.359 426.989 105.359ZM427.255 101.909C440.657 101.909 447.557 89.0378 447.557 69.001C447.557 49.7603 440.391 36.0928 426.989 36.0928C413.587 36.0928 406.554 48.9642 406.554 69.001C406.554 88.2416 413.853 101.909 427.255 101.909Z" fill="#FFFCF5"/>
<path d="M524.414 9.53674e-07V87.1801C524.414 95.6726 526.537 98.8572 531.181 100.184V101.776L516.983 105.359H515.921L514.064 93.9475C508.623 100.582 501.325 105.359 492.169 105.359C476.511 105.359 465.63 90.6302 465.63 70.3279C465.63 47.1065 480.227 32.6428 497.875 32.6428C503.979 32.6428 509.287 34.3678 513.666 37.0217V17.781C513.666 9.2886 511.41 6.50202 506.898 5.30777V3.71544L523.352 0L524.414 9.53674e-07ZM497.344 98.8572C504.112 98.8572 509.552 95.0091 513.666 90.2321V54.9354C513.666 43.1256 507.694 36.0928 497.742 36.0928C483.809 36.0928 477.175 49.893 477.175 67.1433C477.175 84.2608 483.942 98.8572 497.344 98.8572Z" fill="#FFFCF5"/>
</svg>
