<svg width="80" height="13" viewBox="0 0 80 13" fill="none" xmlns="http://www.w3.org/2000/svg">
<mask id="path-1-outside-1_807_202" maskUnits="userSpaceOnUse" x="0" y="-0.5" width="80" height="14" fill="black">
<rect fill="white" y="-0.5" width="80" height="14"/>
<path d="M7.24694 0.822119V0.6264H10.248V0.822119C9.33461 0.822119 9.17151 1.80071 9.17151 3.49694V12.6305H8.84531L2.09302 1.89857V10.0046C2.09302 11.3583 2.25611 12.3043 3.31626 12.3043V12.5H0.201069V12.3043C1.21228 12.3043 1.53848 11.3583 1.53848 10.0046V2.48573C1.53848 1.42559 1.14704 0.952599 0.201069 0.822119V0.6264H2.37028L8.61697 10.5591V3.49694C8.61697 1.80071 8.32339 0.822119 7.24694 0.822119ZM19.0003 9.93935H19.196L18.8372 12.5H10.7964V12.3043C11.9055 12.3043 11.9707 11.6845 11.9707 10.4776V2.64883C11.9707 1.44189 11.9055 0.822119 10.7964 0.822119V0.6264H18.5925L18.7882 2.89347H18.5925C17.8423 1.26249 17.5161 1.08308 15.7546 1.08308H12.884V6.09021H15.1674C16.5701 6.09021 16.7169 5.66616 16.9452 4.62232H17.1409V8.12895H16.9452C16.7169 7.18298 16.5701 6.54689 15.1674 6.54689H12.884V11.2604C12.884 11.7824 13.0471 12.0433 13.5364 12.0433H16.0155C17.777 12.0433 18.1195 11.8639 19.0003 9.93935ZM30.6439 2.61621L31.0842 10.6081C31.1495 11.815 31.2147 12.3043 32.2585 12.3043V12.5H29.0455V12.3043C30.1546 12.3043 30.2361 11.815 30.1709 10.6081L29.6979 1.86595L25.8651 12.5H25.4736L21.6408 1.81702L21.2167 10.0861C21.1515 11.4562 21.4777 12.3043 22.4237 12.3043V12.5H19.439V12.3043C20.3197 12.239 20.597 11.4399 20.6622 10.0861L21.0536 2.51835C21.1189 1.13201 20.6296 0.952599 19.8793 0.822119V0.6264H22.1953L25.8651 10.9016L29.5674 0.6264H31.7692V0.822119C30.6602 0.919978 30.5623 1.21356 30.6439 2.61621ZM44.4741 0.822119V0.6264H47.1V0.822119C46.4803 0.887359 46.0888 1.63761 45.469 3.64373L42.729 12.6305H42.3702L39.8584 4.96483L37.0858 12.6305H36.7269L33.5791 2.71407C33.1388 1.34404 32.7963 0.887359 32.0949 0.822119V0.6264H35.3895V0.822119C34.2805 0.887359 34.0684 1.22987 34.3946 2.2737L37.151 10.9179L39.5812 4.10041L39.1245 2.71407C38.6678 1.31142 38.3905 0.887359 37.5751 0.822119V0.6264H40.8696V0.822119C39.7932 0.887359 39.5975 1.22987 39.94 2.2737L42.729 10.8038L44.9308 3.51325C45.518 1.53975 45.7137 0.887359 44.4741 0.822119ZM51.9669 12.6957C48.868 12.6957 46.7966 10.3145 46.7966 6.59582C46.7966 2.9424 48.9332 0.430682 51.9995 0.430682C55.1147 0.430682 57.186 2.81193 57.186 6.53058C57.186 10.184 55.0494 12.6957 51.9669 12.6957ZM51.9995 12.239C54.6091 12.239 56.1422 9.95566 56.1422 6.5632C56.1422 3.2686 54.5765 0.887359 51.9669 0.887359C49.3736 0.887359 47.8405 3.17074 47.8405 6.5632C47.8405 9.8578 49.4225 12.239 51.9995 12.239ZM63.3392 12.6957C60.2403 12.6957 58.169 10.3145 58.169 6.59582C58.169 2.9424 60.3056 0.430682 63.3718 0.430682C66.487 0.430682 68.5584 2.81193 68.5584 6.53058C68.5584 10.184 66.4218 12.6957 63.3392 12.6957ZM63.3718 12.239C65.9814 12.239 67.5145 9.95566 67.5145 6.5632C67.5145 3.2686 65.9488 0.887359 63.3392 0.887359C60.7459 0.887359 59.2128 3.17074 59.2128 6.5632C59.2128 9.8578 60.7949 12.239 63.3718 12.239ZM73.5763 12.5H69.1074V12.3043C70.2165 12.3043 70.2817 11.6845 70.2817 10.4776V2.64883C70.2817 1.44189 70.2165 0.822119 69.1074 0.822119V0.6264H73.6416C77.3928 0.6264 79.4968 2.79562 79.4968 6.4001C79.4968 10.1188 77.1319 12.5 73.5763 12.5ZM73.6089 12.0433C76.6752 12.0433 78.453 10.0698 78.453 6.49796C78.453 3.08919 76.6589 1.08308 73.5763 1.08308H71.8149C71.4234 1.08308 71.1951 1.2788 71.1951 1.67023V10.9995C71.1951 11.7824 71.717 12.0433 73.6089 12.0433Z"/>
</mask>
<path d="M7.24694 0.822119V0.6264H10.248V0.822119C9.33461 0.822119 9.17151 1.80071 9.17151 3.49694V12.6305H8.84531L2.09302 1.89857V10.0046C2.09302 11.3583 2.25611 12.3043 3.31626 12.3043V12.5H0.201069V12.3043C1.21228 12.3043 1.53848 11.3583 1.53848 10.0046V2.48573C1.53848 1.42559 1.14704 0.952599 0.201069 0.822119V0.6264H2.37028L8.61697 10.5591V3.49694C8.61697 1.80071 8.32339 0.822119 7.24694 0.822119ZM19.0003 9.93935H19.196L18.8372 12.5H10.7964V12.3043C11.9055 12.3043 11.9707 11.6845 11.9707 10.4776V2.64883C11.9707 1.44189 11.9055 0.822119 10.7964 0.822119V0.6264H18.5925L18.7882 2.89347H18.5925C17.8423 1.26249 17.5161 1.08308 15.7546 1.08308H12.884V6.09021H15.1674C16.5701 6.09021 16.7169 5.66616 16.9452 4.62232H17.1409V8.12895H16.9452C16.7169 7.18298 16.5701 6.54689 15.1674 6.54689H12.884V11.2604C12.884 11.7824 13.0471 12.0433 13.5364 12.0433H16.0155C17.777 12.0433 18.1195 11.8639 19.0003 9.93935ZM30.6439 2.61621L31.0842 10.6081C31.1495 11.815 31.2147 12.3043 32.2585 12.3043V12.5H29.0455V12.3043C30.1546 12.3043 30.2361 11.815 30.1709 10.6081L29.6979 1.86595L25.8651 12.5H25.4736L21.6408 1.81702L21.2167 10.0861C21.1515 11.4562 21.4777 12.3043 22.4237 12.3043V12.5H19.439V12.3043C20.3197 12.239 20.597 11.4399 20.6622 10.0861L21.0536 2.51835C21.1189 1.13201 20.6296 0.952599 19.8793 0.822119V0.6264H22.1953L25.8651 10.9016L29.5674 0.6264H31.7692V0.822119C30.6602 0.919978 30.5623 1.21356 30.6439 2.61621ZM44.4741 0.822119V0.6264H47.1V0.822119C46.4803 0.887359 46.0888 1.63761 45.469 3.64373L42.729 12.6305H42.3702L39.8584 4.96483L37.0858 12.6305H36.7269L33.5791 2.71407C33.1388 1.34404 32.7963 0.887359 32.0949 0.822119V0.6264H35.3895V0.822119C34.2805 0.887359 34.0684 1.22987 34.3946 2.2737L37.151 10.9179L39.5812 4.10041L39.1245 2.71407C38.6678 1.31142 38.3905 0.887359 37.5751 0.822119V0.6264H40.8696V0.822119C39.7932 0.887359 39.5975 1.22987 39.94 2.2737L42.729 10.8038L44.9308 3.51325C45.518 1.53975 45.7137 0.887359 44.4741 0.822119ZM51.9669 12.6957C48.868 12.6957 46.7966 10.3145 46.7966 6.59582C46.7966 2.9424 48.9332 0.430682 51.9995 0.430682C55.1147 0.430682 57.186 2.81193 57.186 6.53058C57.186 10.184 55.0494 12.6957 51.9669 12.6957ZM51.9995 12.239C54.6091 12.239 56.1422 9.95566 56.1422 6.5632C56.1422 3.2686 54.5765 0.887359 51.9669 0.887359C49.3736 0.887359 47.8405 3.17074 47.8405 6.5632C47.8405 9.8578 49.4225 12.239 51.9995 12.239ZM63.3392 12.6957C60.2403 12.6957 58.169 10.3145 58.169 6.59582C58.169 2.9424 60.3056 0.430682 63.3718 0.430682C66.487 0.430682 68.5584 2.81193 68.5584 6.53058C68.5584 10.184 66.4218 12.6957 63.3392 12.6957ZM63.3718 12.239C65.9814 12.239 67.5145 9.95566 67.5145 6.5632C67.5145 3.2686 65.9488 0.887359 63.3392 0.887359C60.7459 0.887359 59.2128 3.17074 59.2128 6.5632C59.2128 9.8578 60.7949 12.239 63.3718 12.239ZM73.5763 12.5H69.1074V12.3043C70.2165 12.3043 70.2817 11.6845 70.2817 10.4776V2.64883C70.2817 1.44189 70.2165 0.822119 69.1074 0.822119V0.6264H73.6416C77.3928 0.6264 79.4968 2.79562 79.4968 6.4001C79.4968 10.1188 77.1319 12.5 73.5763 12.5ZM73.6089 12.0433C76.6752 12.0433 78.453 10.0698 78.453 6.49796C78.453 3.08919 76.6589 1.08308 73.5763 1.08308H71.8149C71.4234 1.08308 71.1951 1.2788 71.1951 1.67023V10.9995C71.1951 11.7824 71.717 12.0433 73.6089 12.0433Z" fill="#FFFCF5"/>
<path d="M7.24694 0.822119H7.07278V0.996285H7.24694V0.822119ZM7.24694 0.6264V0.452235H7.07278V0.6264H7.24694ZM10.248 0.6264H10.4221V0.452235H10.248V0.6264ZM10.248 0.822119V0.996285H10.4221V0.822119H10.248ZM9.17151 12.6305V12.8046H9.34567V12.6305H9.17151ZM8.84531 12.6305L8.6979 12.7232L8.74912 12.8046H8.84531V12.6305ZM2.09302 1.89857L2.24043 1.80582L1.91885 1.29471V1.89857H2.09302ZM3.31626 12.3043H3.49042V12.1301H3.31626V12.3043ZM3.31626 12.5V12.6742H3.49042V12.5H3.31626ZM0.201069 12.5H0.0269032V12.6742H0.201069V12.5ZM0.201069 12.3043V12.1301H0.0269032V12.3043H0.201069ZM0.201069 0.822119H0.0269032V0.973911L0.177271 0.994651L0.201069 0.822119ZM0.201069 0.6264V0.452235H0.0269032V0.6264H0.201069ZM2.37028 0.6264L2.51772 0.53368L2.4665 0.452235H2.37028V0.6264ZM8.61697 10.5591L8.46954 10.6518L8.79114 11.1632V10.5591H8.61697ZM7.24694 0.822119H7.42111V0.6264H7.24694H7.07278V0.822119H7.24694ZM7.24694 0.6264V0.800566H10.248V0.6264V0.452235H7.24694V0.6264ZM10.248 0.6264H10.0738V0.822119H10.248H10.4221V0.6264H10.248ZM10.248 0.822119V0.647954C9.9864 0.647954 9.7638 0.718938 9.58379 0.867029C9.40669 1.01273 9.28609 1.22052 9.2023 1.46749C9.03689 1.955 8.99734 2.65119 8.99734 3.49694H9.17151H9.34567C9.34567 2.64646 9.38768 2.00524 9.53216 1.5794C9.60331 1.36969 9.69473 1.22682 9.8051 1.13603C9.91255 1.04762 10.0528 0.996285 10.248 0.996285V0.822119ZM9.17151 3.49694H8.99734V12.6305H9.17151H9.34567V3.49694H9.17151ZM9.17151 12.6305V12.4563H8.84531V12.6305V12.8046H9.17151V12.6305ZM8.84531 12.6305L8.99272 12.5377L2.24043 1.80582L2.09302 1.89857L1.9456 1.99132L8.6979 12.7232L8.84531 12.6305ZM2.09302 1.89857H1.91885V10.0046H2.09302H2.26718V1.89857H2.09302ZM2.09302 10.0046H1.91885C1.91885 10.6796 1.95796 11.2881 2.14692 11.7305C2.24342 11.9564 2.38219 12.1472 2.58111 12.2801C2.78017 12.4131 3.02484 12.4784 3.31626 12.4784V12.3043V12.1301C3.0776 12.1301 2.90433 12.0772 2.77464 11.9905C2.64482 11.9038 2.54404 11.7734 2.46725 11.5937C2.30963 11.2246 2.26718 10.6833 2.26718 10.0046H2.09302ZM3.31626 12.3043H3.14209V12.5H3.31626H3.49042V12.3043H3.31626ZM3.31626 12.5V12.3258H0.201069V12.5V12.6742H3.31626V12.5ZM0.201069 12.5H0.375234V12.3043H0.201069H0.0269032V12.5H0.201069ZM0.201069 12.3043V12.4784C0.482053 12.4784 0.725491 12.4124 0.93008 12.2823C1.1341 12.1526 1.28887 11.9661 1.40397 11.7415C1.6312 11.2982 1.71265 10.6893 1.71265 10.0046H1.53848H1.36431C1.36431 10.6736 1.28266 11.2145 1.09399 11.5826C1.00113 11.7638 0.884756 11.8984 0.74321 11.9883C0.602232 12.078 0.425691 12.1301 0.201069 12.1301V12.3043ZM1.53848 10.0046H1.71265V2.48573H1.53848H1.36431V10.0046H1.53848ZM1.53848 2.48573H1.71265C1.71265 1.93848 1.6124 1.50778 1.35991 1.19574C1.10506 0.880794 0.720847 0.717999 0.224866 0.649587L0.201069 0.822119L0.177271 0.994651C0.627264 1.05672 0.911754 1.19566 1.08912 1.41485C1.26885 1.63697 1.36431 1.97283 1.36431 2.48573H1.53848ZM0.201069 0.822119H0.375234V0.6264H0.201069H0.0269032V0.822119H0.201069ZM0.201069 0.6264V0.800566H2.37028V0.6264V0.452235H0.201069V0.6264ZM2.37028 0.6264L2.22285 0.719121L8.46954 10.6518L8.61697 10.5591L8.7644 10.4664L2.51772 0.53368L2.37028 0.6264ZM8.61697 10.5591H8.79114V3.49694H8.61697H8.44281V10.5591H8.61697ZM8.61697 3.49694H8.79114C8.79114 2.64648 8.71883 1.94473 8.49413 1.45127C8.37999 1.20061 8.22344 0.996533 8.01117 0.856233C7.79846 0.715639 7.54321 0.647954 7.24694 0.647954V0.822119V0.996285C7.48889 0.996285 7.67401 1.05092 7.8191 1.14682C7.96463 1.24302 8.08331 1.3896 8.17712 1.59562C8.36832 2.01552 8.44281 2.65117 8.44281 3.49694H8.61697ZM19.0003 9.93935V9.76518H18.8884L18.8419 9.86687L19.0003 9.93935ZM19.196 9.93935L19.3685 9.96352L19.3962 9.76518H19.196V9.93935ZM18.8372 12.5V12.6742H18.9886L19.0096 12.5242L18.8372 12.5ZM10.7964 12.5H10.6222V12.6742H10.7964V12.5ZM10.7964 12.3043V12.1301H10.6222V12.3043H10.7964ZM10.7964 0.822119H10.6222V0.996285H10.7964V0.822119ZM10.7964 0.6264V0.452235H10.6222V0.6264H10.7964ZM18.5925 0.6264L18.766 0.61142L18.7523 0.452235H18.5925V0.6264ZM18.7882 2.89347V3.06764H18.9781L18.9617 2.87849L18.7882 2.89347ZM18.5925 2.89347L18.4343 2.96626L18.4809 3.06764H18.5925V2.89347ZM12.884 1.08308V0.908912H12.7099V1.08308H12.884ZM12.884 6.09021H12.7099V6.26438H12.884V6.09021ZM16.9452 4.62232V4.44816H16.805L16.7751 4.5851L16.9452 4.62232ZM17.1409 4.62232H17.3151V4.44816H17.1409V4.62232ZM17.1409 8.12895V8.30312H17.3151V8.12895H17.1409ZM16.9452 8.12895L16.7759 8.16982L16.8081 8.30312H16.9452V8.12895ZM12.884 6.54689V6.37272H12.7099V6.54689H12.884ZM19.0003 9.93935V10.1135H19.196V9.93935V9.76518H19.0003V9.93935ZM19.196 9.93935L19.0235 9.91518L18.6647 12.4758L18.8372 12.5L19.0096 12.5242L19.3685 9.96352L19.196 9.93935ZM18.8372 12.5V12.3258H10.7964V12.5V12.6742H18.8372V12.5ZM10.7964 12.5H10.9705V12.3043H10.7964H10.6222V12.5H10.7964ZM10.7964 12.3043V12.4784C11.0878 12.4784 11.3284 12.4381 11.5225 12.3459C11.7214 12.2515 11.8609 12.1076 11.9548 11.9222C12.0462 11.7419 12.092 11.527 12.1164 11.29C12.1409 11.0523 12.1449 10.7792 12.1449 10.4776H11.9707H11.7965C11.7965 10.7794 11.7924 11.0364 11.7699 11.2543C11.7474 11.473 11.7076 11.6394 11.6441 11.7648C11.583 11.8853 11.4983 11.9718 11.373 12.0313C11.243 12.093 11.0595 12.1301 10.7964 12.1301V12.3043ZM11.9707 10.4776H12.1449V2.64883H11.9707H11.7965V10.4776H11.9707ZM11.9707 2.64883H12.1449C12.1449 2.34717 12.1409 2.07408 12.1164 1.8364C12.092 1.5994 12.0462 1.38452 11.9548 1.20416C11.8609 1.01883 11.7214 0.87493 11.5225 0.780488C11.3284 0.688334 11.0878 0.647954 10.7964 0.647954V0.822119V0.996285C11.0595 0.996285 11.243 1.03338 11.373 1.09515C11.4983 1.15463 11.583 1.24111 11.6441 1.36159C11.7076 1.48703 11.7474 1.6534 11.7699 1.87206C11.7924 2.09004 11.7965 2.34702 11.7965 2.64883H11.9707ZM10.7964 0.822119H10.9705V0.6264H10.7964H10.6222V0.822119H10.7964ZM10.7964 0.6264V0.800566H18.5925V0.6264V0.452235H10.7964V0.6264ZM18.5925 0.6264L18.419 0.64138L18.6147 2.90845L18.7882 2.89347L18.9617 2.87849L18.766 0.61142L18.5925 0.6264ZM18.7882 2.89347V2.71931H18.5925V2.89347V3.06764H18.7882V2.89347ZM18.5925 2.89347L18.7507 2.82069C18.378 2.01043 18.0908 1.50927 17.6455 1.22922C17.201 0.949718 16.6277 0.908912 15.7546 0.908912V1.08308V1.25724C16.643 1.25724 17.1135 1.30614 17.46 1.52409C17.8057 1.74149 18.0567 2.14553 18.4343 2.96626L18.5925 2.89347ZM15.7546 1.08308V0.908912H12.884V1.08308V1.25724H15.7546V1.08308ZM12.884 1.08308H12.7099V6.09021H12.884H13.0582V1.08308H12.884ZM12.884 6.09021V6.26438H15.1674V6.09021V5.91605H12.884V6.09021ZM15.1674 6.09021V6.26438C15.8758 6.26438 16.3258 6.15993 16.6188 5.87191C16.9033 5.59223 17.0041 5.16804 17.1154 4.65954L16.9452 4.62232L16.7751 4.5851C16.658 5.12044 16.5712 5.43019 16.3746 5.6235C16.1864 5.80846 15.8617 5.91605 15.1674 5.91605V6.09021ZM16.9452 4.62232V4.79649H17.1409V4.62232V4.44816H16.9452V4.62232ZM17.1409 4.62232H16.9668V8.12895H17.1409H17.3151V4.62232H17.1409ZM17.1409 8.12895V7.95478H16.9452V8.12895V8.30312H17.1409V8.12895ZM16.9452 8.12895L17.1145 8.08808C17.0037 7.62883 16.9025 7.1851 16.6282 6.86904C16.3405 6.53738 15.8927 6.37272 15.1674 6.37272V6.54689V6.72106C15.8448 6.72106 16.1718 6.87445 16.3651 7.09732C16.572 7.33579 16.6584 7.6831 16.7759 8.16982L16.9452 8.12895ZM15.1674 6.54689V6.37272H12.884V6.54689V6.72106H15.1674V6.54689ZM12.884 6.54689H12.7099V11.2604H12.884H13.0582V6.54689H12.884ZM12.884 11.2604H12.7099C12.7099 11.5317 12.7506 11.777 12.8895 11.9548C13.0366 12.1431 13.2617 12.2175 13.5364 12.2175V12.0433V11.8692C13.3219 11.8692 13.2208 11.813 13.164 11.7404C13.099 11.6572 13.0582 11.5111 13.0582 11.2604H12.884ZM13.5364 12.0433V12.2175H16.0155V12.0433V11.8692H13.5364V12.0433ZM16.0155 12.0433V12.2175C16.889 12.2175 17.4699 12.177 17.9367 11.8566C18.3985 11.5398 18.7214 10.9673 19.1586 10.0118L19.0003 9.93935L18.8419 9.86687C18.3984 10.8359 18.1097 11.3155 17.7396 11.5694C17.3746 11.8199 16.9035 11.8692 16.0155 11.8692V12.0433ZM30.6439 2.61621L30.8178 2.60662L30.8177 2.6061L30.6439 2.61621ZM31.0842 10.6081L31.2581 10.5987L31.2581 10.5985L31.0842 10.6081ZM32.2585 12.3043H32.4327V12.1301H32.2585V12.3043ZM32.2585 12.5V12.6742H32.4327V12.5H32.2585ZM29.0455 12.5H28.8713V12.6742H29.0455V12.5ZM29.0455 12.3043V12.1301H28.8713V12.3043H29.0455ZM30.1709 10.6081L30.3448 10.5987L30.3448 10.5986L30.1709 10.6081ZM29.6979 1.86595L29.8718 1.85654L29.534 1.8069L29.6979 1.86595ZM25.8651 12.5V12.6742H25.9874L26.0289 12.5591L25.8651 12.5ZM25.4736 12.5L25.3097 12.5588L25.3511 12.6742H25.4736V12.5ZM21.6408 1.81702L21.8047 1.75821L21.4669 1.8081L21.6408 1.81702ZM21.2167 10.0861L21.0428 10.0772L21.0428 10.0779L21.2167 10.0861ZM22.4237 12.3043H22.5978V12.1301H22.4237V12.3043ZM22.4237 12.5V12.6742H22.5978V12.5H22.4237ZM19.439 12.5H19.2648V12.6742H19.439V12.5ZM19.439 12.3043L19.4261 12.1306L19.2648 12.1425V12.3043H19.439ZM20.6622 10.0861L20.4883 10.0771L20.4882 10.0778L20.6622 10.0861ZM21.0536 2.51835L21.2276 2.52734L21.2276 2.52653L21.0536 2.51835ZM19.8793 0.822119H19.7052V0.968609L19.8495 0.993709L19.8793 0.822119ZM19.8793 0.6264V0.452235H19.7052V0.6264H19.8793ZM22.1953 0.6264L22.3594 0.567822L22.3181 0.452235H22.1953V0.6264ZM25.8651 10.9016L25.701 10.9602L25.8643 11.4174L26.0289 10.9607L25.8651 10.9016ZM29.5674 0.6264V0.452235H29.445L29.4036 0.567361L29.5674 0.6264ZM31.7692 0.6264H31.9434V0.452235H31.7692V0.6264ZM31.7692 0.822119L31.7846 0.995611L31.9434 0.981594V0.822119H31.7692ZM30.6439 2.61621L30.47 2.62579L30.9103 10.6176L31.0842 10.6081L31.2581 10.5985L30.8178 2.60662L30.6439 2.61621ZM31.0842 10.6081L30.9103 10.6175C30.9266 10.9182 30.9432 11.1828 30.9761 11.4075C31.009 11.6315 31.0598 11.8306 31.1529 11.9947C31.2492 12.1644 31.3865 12.2897 31.5763 12.3695C31.7605 12.447 31.9864 12.4784 32.2585 12.4784V12.3043V12.1301C32.0087 12.1301 31.8351 12.1004 31.7114 12.0484C31.5933 11.9988 31.5146 11.9264 31.4559 11.8228C31.394 11.7138 31.3511 11.5642 31.3208 11.357C31.2905 11.1505 31.2745 10.9014 31.2581 10.5987L31.0842 10.6081ZM32.2585 12.3043H32.0844V12.5H32.2585H32.4327V12.3043H32.2585ZM32.2585 12.5V12.3258H29.0455V12.5V12.6742H32.2585V12.5ZM29.0455 12.5H29.2197V12.3043H29.0455H28.8713V12.5H29.0455ZM29.0455 12.3043V12.4784C29.6166 12.4784 30.0021 12.3532 30.201 11.993C30.2939 11.8247 30.3356 11.6217 30.3522 11.395C30.3689 11.1675 30.3611 10.9012 30.3448 10.5987L30.1709 10.6081L29.997 10.6175C30.0132 10.9184 30.0197 11.1658 30.0048 11.3695C29.9898 11.574 29.954 11.7196 29.8961 11.8246C29.7933 12.0107 29.5835 12.1301 29.0455 12.1301V12.3043ZM30.1709 10.6081L30.3448 10.5986L29.8718 1.85654L29.6979 1.86595L29.524 1.87536L29.997 10.6175L30.1709 10.6081ZM29.6979 1.86595L29.534 1.8069L25.7012 12.4409L25.8651 12.5L26.0289 12.5591L29.8617 1.92501L29.6979 1.86595ZM25.8651 12.5V12.3258H25.4736V12.5V12.6742H25.8651V12.5ZM25.4736 12.5L25.6376 12.4412L21.8047 1.75821L21.6408 1.81702L21.4769 1.87584L25.3097 12.5588L25.4736 12.5ZM21.6408 1.81702L21.4669 1.8081L21.0428 10.0772L21.2167 10.0861L21.3907 10.0951L21.8147 1.82594L21.6408 1.81702ZM21.2167 10.0861L21.0428 10.0779C21.0097 10.7719 21.0733 11.363 21.2852 11.7869C21.3928 12.002 21.5404 12.1775 21.735 12.2983C21.9297 12.4192 22.1605 12.4784 22.4237 12.4784V12.3043V12.1301C22.2139 12.1301 22.0492 12.0834 21.9187 12.0024C21.7881 11.9213 21.6809 11.7992 21.5968 11.6311C21.4254 11.2884 21.3585 10.7704 21.3907 10.0944L21.2167 10.0861ZM22.4237 12.3043H22.2495V12.5H22.4237H22.5978V12.3043H22.4237ZM22.4237 12.5V12.3258H19.439V12.5V12.6742H22.4237V12.5ZM19.439 12.5H19.6131V12.3043H19.439H19.2648V12.5H19.439ZM19.439 12.3043L19.4518 12.478C19.6985 12.4597 19.912 12.389 20.0921 12.2634C20.2717 12.1381 20.4085 11.9649 20.5123 11.7559C20.717 11.3444 20.8034 10.7751 20.8362 10.0945L20.6622 10.0861L20.4882 10.0778C20.4558 10.7509 20.3709 11.258 20.2005 11.6008C20.1168 11.7691 20.0149 11.8925 19.8928 11.9777C19.7712 12.0625 19.6198 12.1162 19.4261 12.1306L19.439 12.3043ZM20.6622 10.0861L20.8361 10.0951L21.2276 2.52734L21.0536 2.51835L20.8797 2.50935L20.4883 10.0771L20.6622 10.0861ZM21.0536 2.51835L21.2276 2.52653C21.2608 1.8213 21.1573 1.37083 20.9026 1.08372C20.6496 0.798431 20.2801 0.715034 19.9092 0.650529L19.8793 0.822119L19.8495 0.993709C20.2288 1.05968 20.4791 1.13123 20.642 1.31485C20.8032 1.49665 20.9117 1.82906 20.8797 2.51016L21.0536 2.51835ZM19.8793 0.822119H20.0535V0.6264H19.8793H19.7052V0.822119H19.8793ZM19.8793 0.6264V0.800566H22.1953V0.6264V0.452235H19.8793V0.6264ZM22.1953 0.6264L22.0313 0.684978L25.701 10.9602L25.8651 10.9016L26.0291 10.8431L22.3594 0.567822L22.1953 0.6264ZM25.8651 10.9016L26.0289 10.9607L29.7313 0.685439L29.5674 0.6264L29.4036 0.567361L25.7012 10.8426L25.8651 10.9016ZM29.5674 0.6264V0.800566H31.7692V0.6264V0.452235H29.5674V0.6264ZM31.7692 0.6264H31.5951V0.822119H31.7692H31.9434V0.6264H31.7692ZM31.7692 0.822119L31.7539 0.648628C31.2037 0.697179 30.8121 0.79663 30.6098 1.14182C30.5134 1.30636 30.4713 1.50908 30.4556 1.74635C30.4397 1.98449 30.4496 2.27539 30.47 2.62632L30.6439 2.61621L30.8177 2.6061C30.7974 2.2557 30.7889 1.98391 30.8031 1.76945C30.8174 1.55412 30.8538 1.41433 30.9103 1.31792C31.0139 1.14119 31.2257 1.04492 31.7846 0.995611L31.7692 0.822119ZM44.4741 0.822119H44.3V0.987359L44.465 0.996044L44.4741 0.822119ZM44.4741 0.6264V0.452235H44.3V0.6264H44.4741ZM47.1 0.6264H47.2742V0.452235H47.1V0.6264ZM47.1 0.822119L47.1183 0.995328L47.2742 0.978914V0.822119H47.1ZM45.469 3.64373L45.3026 3.59232L45.3024 3.59294L45.469 3.64373ZM42.729 12.6305V12.8046H42.858L42.8956 12.6813L42.729 12.6305ZM42.3702 12.6305L42.2047 12.6847L42.2439 12.8046H42.3702V12.6305ZM39.8584 4.96483L40.0239 4.9106L39.8666 4.4303L39.6947 4.90559L39.8584 4.96483ZM37.0858 12.6305V12.8046H37.208L37.2495 12.6897L37.0858 12.6305ZM36.7269 12.6305L36.5609 12.6832L36.5995 12.8046H36.7269V12.6305ZM33.5791 2.71407L33.7451 2.66137L33.7449 2.66077L33.5791 2.71407ZM32.0949 0.822119H31.9208V0.980835L32.0788 0.995536L32.0949 0.822119ZM32.0949 0.6264V0.452235H31.9208V0.6264H32.0949ZM35.3895 0.6264H35.5637V0.452235H35.3895V0.6264ZM35.3895 0.822119L35.3998 0.995984L35.5637 0.986341V0.822119H35.3895ZM34.3946 2.2737L34.2284 2.32565L34.2287 2.32661L34.3946 2.2737ZM37.151 10.9179L36.9851 10.9709L37.1418 11.4624L37.315 10.9764L37.151 10.9179ZM39.5812 4.10041L39.7452 4.15889L39.7653 4.10263L39.7466 4.04591L39.5812 4.10041ZM39.1245 2.71407L38.9589 2.76799L38.9591 2.76856L39.1245 2.71407ZM37.5751 0.822119H37.4009V0.982908L37.5612 0.99573L37.5751 0.822119ZM37.5751 0.6264V0.452235H37.4009V0.6264H37.5751ZM40.8696 0.6264H41.0438V0.452235H40.8696V0.6264ZM40.8696 0.822119L40.8802 0.995966L41.0438 0.986049V0.822119H40.8696ZM39.94 2.2737L40.1055 2.21957L40.1055 2.2194L39.94 2.2737ZM42.729 10.8038L42.5634 10.8579L42.7356 11.3844L42.8957 10.8541L42.729 10.8038ZM44.9308 3.51325L45.0975 3.56361L45.0977 3.56292L44.9308 3.51325ZM44.4741 0.822119H44.6483V0.6264H44.4741H44.3V0.822119H44.4741ZM44.4741 0.6264V0.800566H47.1V0.6264V0.452235H44.4741V0.6264ZM47.1 0.6264H46.9259V0.822119H47.1H47.2742V0.6264H47.1ZM47.1 0.822119L47.0818 0.648911C46.69 0.690156 46.3975 0.952184 46.133 1.41928C45.8698 1.88405 45.6124 2.5898 45.3026 3.59232L45.469 3.64373L45.6354 3.69514C45.9455 2.69154 46.1936 2.01911 46.4361 1.59091C46.6772 1.16504 46.8903 1.01932 47.1183 0.995328L47.1 0.822119ZM45.469 3.64373L45.3024 3.59294L42.5624 12.5797L42.729 12.6305L42.8956 12.6813L45.6356 3.69452L45.469 3.64373ZM42.729 12.6305V12.4563H42.3702V12.6305V12.8046H42.729V12.6305ZM42.3702 12.6305L42.5357 12.5762L40.0239 4.9106L39.8584 4.96483L39.6929 5.01906L42.2047 12.6847L42.3702 12.6305ZM39.8584 4.96483L39.6947 4.90559L36.922 12.5712L37.0858 12.6305L37.2495 12.6897L40.0222 5.02407L39.8584 4.96483ZM37.0858 12.6305V12.4563H36.7269V12.6305V12.8046H37.0858V12.6305ZM36.7269 12.6305L36.8929 12.5778L33.7451 2.66137L33.5791 2.71407L33.4131 2.76676L36.5609 12.6832L36.7269 12.6305ZM33.5791 2.71407L33.7449 2.66077C33.5244 1.97461 33.3212 1.49177 33.0724 1.17187C32.8128 0.838095 32.5067 0.685509 32.1111 0.648703L32.0949 0.822119L32.0788 0.995536C32.3844 1.02397 32.6003 1.13234 32.7974 1.38572C33.0053 1.65298 33.1935 2.08349 33.4133 2.76736L33.5791 2.71407ZM32.0949 0.822119H32.2691V0.6264H32.0949H31.9208V0.822119H32.0949ZM32.0949 0.6264V0.800566H35.3895V0.6264V0.452235H32.0949V0.6264ZM35.3895 0.6264H35.2154V0.822119H35.3895H35.5637V0.6264H35.3895ZM35.3895 0.822119L35.3793 0.648254C35.0958 0.664934 34.8568 0.699818 34.6646 0.764633C34.4707 0.830052 34.3127 0.93004 34.2093 1.08372C34.1062 1.23703 34.0728 1.42097 34.0825 1.62407C34.0922 1.82567 34.1451 2.05915 34.2284 2.32565L34.3946 2.2737L34.5609 2.22175C34.481 1.96633 34.4381 1.76556 34.4305 1.60732C34.4229 1.45058 34.4506 1.34911 34.4984 1.27815C34.5458 1.20757 34.6284 1.14446 34.776 1.09469C34.9253 1.04432 35.1288 1.01192 35.3998 0.995984L35.3895 0.822119ZM34.3946 2.2737L34.2287 2.32661L36.9851 10.9709L37.151 10.9179L37.3169 10.865L34.5606 2.22079L34.3946 2.2737ZM37.151 10.9179L37.315 10.9764L39.7452 4.15889L39.5812 4.10041L39.4171 4.04193L36.9869 10.8595L37.151 10.9179ZM39.5812 4.10041L39.7466 4.04591L39.2899 2.65957L39.1245 2.71407L38.9591 2.76856L39.4157 4.1549L39.5812 4.10041ZM39.1245 2.71407L39.2901 2.66015C39.0629 1.96222 38.8714 1.47613 38.6211 1.15871C38.3561 0.822758 38.0332 0.684051 37.5889 0.648508L37.5751 0.822119L37.5612 0.99573C37.9324 1.02543 38.1559 1.13137 38.3476 1.37442C38.5539 1.636 38.7294 2.06326 38.9589 2.76799L39.1245 2.71407ZM37.5751 0.822119H37.7492V0.6264H37.5751H37.4009V0.822119H37.5751ZM37.5751 0.6264V0.800566H40.8696V0.6264V0.452235H37.5751V0.6264ZM40.8696 0.6264H40.6955V0.822119H40.8696H41.0438V0.6264H40.8696ZM40.8696 0.822119L40.8591 0.648273C40.5836 0.664972 40.351 0.699934 40.1645 0.765295C39.9757 0.831435 39.8227 0.932854 39.7252 1.08839C39.6284 1.24264 39.6011 1.42648 39.6157 1.62825C39.6302 1.82902 39.6872 2.06181 39.7745 2.328L39.94 2.2737L40.1055 2.2194C40.0216 1.96367 39.9746 1.76221 39.9631 1.60315C39.9517 1.44507 39.9763 1.3435 40.0202 1.27349C40.0634 1.20476 40.1397 1.14308 40.2797 1.09403C40.4219 1.0442 40.6175 1.01189 40.8802 0.995966L40.8696 0.822119ZM39.94 2.2737L39.7744 2.32782L42.5634 10.8579L42.729 10.8038L42.8945 10.7496L40.1055 2.21957L39.94 2.2737ZM42.729 10.8038L42.8957 10.8541L45.0975 3.56361L44.9308 3.51325L44.7641 3.4629L42.5622 10.7534L42.729 10.8038ZM44.9308 3.51325L45.0977 3.56292C45.244 3.0712 45.3679 2.65529 45.4508 2.31002C45.5331 1.9675 45.5797 1.67641 45.5611 1.43854C45.5418 1.19122 45.4502 0.98732 45.2498 0.849205C45.0624 0.720001 44.8021 0.664976 44.4833 0.648195L44.4741 0.822119L44.465 0.996044C44.7659 1.01188 44.946 1.06287 45.0522 1.13601C45.1453 1.20024 45.2005 1.29502 45.2139 1.46564C45.2279 1.64571 45.193 1.89183 45.1121 2.22871C45.0319 2.56285 44.9112 2.96856 44.7639 3.46359L44.9308 3.51325ZM51.9669 12.6957V12.5216C50.4653 12.5216 49.2223 11.9463 48.3521 10.9272C47.4798 9.90551 46.9708 8.42385 46.9708 6.59582H46.7966H46.6225C46.6225 8.48645 47.1492 10.0547 48.0872 11.1534C49.0275 12.2546 50.3696 12.8699 51.9669 12.8699V12.6957ZM46.7966 6.59582H46.9708C46.9708 4.80227 47.4951 3.30324 48.3812 2.2557C49.2654 1.21031 50.5175 0.604848 51.9995 0.604848V0.430682V0.256517C50.4153 0.256517 49.0659 0.906912 48.1152 2.03074C47.1665 3.15242 46.6225 4.73595 46.6225 6.59582H46.7966ZM51.9995 0.430682V0.604848C53.5095 0.604848 54.7566 1.18035 55.6286 2.19938C56.5029 3.22098 57.0119 4.70255 57.0119 6.53058H57.186H57.3602C57.3602 4.63996 56.8335 3.07158 55.8933 1.9729C54.9509 0.871633 53.6047 0.256517 51.9995 0.256517V0.430682ZM57.186 6.53058H57.0119C57.0119 8.32413 56.4876 9.82308 55.5996 10.8706C54.7134 11.9159 53.4573 12.5216 51.9669 12.5216V12.6957V12.8699C53.559 12.8699 54.9125 12.2197 55.8653 11.0958C56.8162 9.97407 57.3602 8.39045 57.3602 6.53058H57.186ZM51.9995 12.239V12.4132C53.3622 12.4132 54.45 11.8138 55.1912 10.7744C55.9282 9.74104 56.3164 8.28287 56.3164 6.5632H56.1422H55.968C55.968 8.23599 55.5897 9.61574 54.9076 10.5722C54.2299 11.5226 53.2464 12.0649 51.9995 12.0649V12.239ZM56.1422 6.5632H56.3164C56.3164 4.89082 55.9193 3.43332 55.175 2.38874C54.427 1.33902 53.3319 0.713193 51.9669 0.713193V0.887359V1.06152C53.2114 1.06152 54.204 1.62632 54.8913 2.59087C55.5822 3.56057 55.968 4.94099 55.968 6.5632H56.1422ZM51.9669 0.887359V0.713193C50.612 0.713193 49.5282 1.31291 48.7893 2.35218C48.0545 3.38547 47.6663 4.84352 47.6663 6.5632H47.8405H48.0146C48.0146 4.89042 48.393 3.51056 49.0731 2.55404C49.749 1.6035 50.7285 1.06152 51.9669 1.06152V0.887359ZM47.8405 6.5632H47.6663C47.6663 8.23597 48.0676 9.69332 48.8118 10.7377C49.5594 11.7868 50.6502 12.4132 51.9995 12.4132V12.239V12.0649C50.7719 12.0649 49.7831 11.5006 49.0955 10.5355C48.4043 9.5656 48.0146 8.18503 48.0146 6.5632H47.8405ZM63.3392 12.6957V12.5216C61.8376 12.5216 60.5946 11.9463 59.7245 10.9272C58.8521 9.90551 58.3431 8.42385 58.3431 6.59582H58.169H57.9948C57.9948 8.48645 58.5215 10.0547 59.4595 11.1534C60.3998 12.2546 61.7419 12.8699 63.3392 12.8699V12.6957ZM58.169 6.59582H58.3431C58.3431 4.80227 58.8674 3.30324 59.7535 2.2557C60.6378 1.21031 61.8898 0.604848 63.3718 0.604848V0.430682V0.256517C61.7876 0.256517 60.4382 0.906912 59.4876 2.03074C58.5388 3.15242 57.9948 4.73595 57.9948 6.59582H58.169ZM63.3718 0.430682V0.604848C64.8818 0.604848 66.1289 1.18035 67.001 2.19938C67.8752 3.22098 68.3842 4.70255 68.3842 6.53058H68.5584H68.7325C68.7325 4.63996 68.2058 3.07158 67.2656 1.9729C66.3232 0.871633 64.977 0.256517 63.3718 0.256517V0.430682ZM68.5584 6.53058H68.3842C68.3842 8.32413 67.8599 9.82308 66.9719 10.8706C66.0857 11.9159 64.8297 12.5216 63.3392 12.5216V12.6957V12.8699C64.9313 12.8699 66.2848 12.2197 67.2376 11.0958C68.1885 9.97407 68.7325 8.39045 68.7325 6.53058H68.5584ZM63.3718 12.239V12.4132C64.7345 12.4132 65.8223 11.8138 66.5636 10.7744C67.3005 9.74104 67.6887 8.28287 67.6887 6.5632H67.5145H67.3404C67.3404 8.23599 66.962 9.61574 66.28 10.5722C65.6022 11.5226 64.6187 12.0649 63.3718 12.0649V12.239ZM67.5145 6.5632H67.6887C67.6887 4.89082 67.2916 3.43332 66.5473 2.38874C65.7993 1.33902 64.7042 0.713193 63.3392 0.713193V0.887359V1.06152C64.5838 1.06152 65.5763 1.62632 66.2636 2.59087C66.9546 3.56057 67.3404 4.94099 67.3404 6.5632H67.5145ZM63.3392 0.887359V0.713193C61.9843 0.713193 60.9006 1.31291 60.1616 2.35218C59.4268 3.38547 59.0386 4.84352 59.0386 6.5632H59.2128H59.387C59.387 4.89042 59.7653 3.51056 60.4455 2.55404C61.1213 1.6035 62.1008 1.06152 63.3392 1.06152V0.887359ZM59.2128 6.5632H59.0386C59.0386 8.23597 59.44 9.69332 60.1841 10.7377C60.9317 11.7868 62.0225 12.4132 63.3718 12.4132V12.239V12.0649C62.1442 12.0649 61.1555 11.5006 60.4678 10.5355C59.7767 9.5656 59.387 8.18503 59.387 6.5632H59.2128ZM69.1074 12.5H68.9333V12.6742H69.1074V12.5ZM69.1074 12.3043V12.1301H68.9333V12.3043H69.1074ZM69.1074 0.822119H68.9333V0.996285H69.1074V0.822119ZM69.1074 0.6264V0.452235H68.9333V0.6264H69.1074ZM73.5763 12.5V12.3258H69.1074V12.5V12.6742H73.5763V12.5ZM69.1074 12.5H69.2816V12.3043H69.1074H68.9333V12.5H69.1074ZM69.1074 12.3043V12.4784C69.3988 12.4784 69.6394 12.4381 69.8335 12.3459C70.0324 12.2515 70.1719 12.1076 70.2658 11.9222C70.3572 11.7419 70.4031 11.527 70.4275 11.29C70.4519 11.0523 70.4559 10.7792 70.4559 10.4776H70.2817H70.1076C70.1076 10.7794 70.1034 11.0364 70.081 11.2543C70.0585 11.473 70.0187 11.6394 69.9551 11.7648C69.8941 11.8853 69.8094 11.9718 69.6841 12.0313C69.554 12.093 69.3705 12.1301 69.1074 12.1301V12.3043ZM70.2817 10.4776H70.4559V2.64883H70.2817H70.1076V10.4776H70.2817ZM70.2817 2.64883H70.4559C70.4559 2.34717 70.4519 2.07408 70.4275 1.8364C70.4031 1.5994 70.3572 1.38452 70.2658 1.20416C70.1719 1.01883 70.0324 0.87493 69.8335 0.780488C69.6394 0.688334 69.3988 0.647954 69.1074 0.647954V0.822119V0.996285C69.3705 0.996285 69.554 1.03338 69.6841 1.09515C69.8094 1.15463 69.8941 1.24111 69.9551 1.36159C70.0187 1.48703 70.0585 1.6534 70.081 1.87206C70.1034 2.09004 70.1076 2.34702 70.1076 2.64883H70.2817ZM69.1074 0.822119H69.2816V0.6264H69.1074H68.9333V0.822119H69.1074ZM69.1074 0.6264V0.800566H73.6416V0.6264V0.452235H69.1074V0.6264ZM73.6416 0.6264V0.800566C75.4839 0.800566 76.8987 1.33261 77.8529 2.28485C78.8071 3.2371 79.3227 4.63151 79.3227 6.4001H79.4968H79.671C79.671 4.56421 79.1345 3.07177 78.0989 2.03829C77.0633 1.00479 75.5505 0.452235 73.6416 0.452235V0.6264ZM79.4968 6.4001H79.3227C79.3227 8.22203 78.744 9.7006 77.7453 10.7228C76.747 11.7448 75.3142 12.3258 73.5763 12.3258V12.5V12.6742C75.394 12.6742 76.9215 12.0646 77.9945 10.9663C79.0672 9.86821 79.671 8.29682 79.671 6.4001H79.4968ZM73.6089 12.0433V12.2175C75.1811 12.2175 76.4441 11.7102 77.3115 10.7252C78.1761 9.74351 78.6271 8.31066 78.6271 6.49796H78.453H78.2788C78.2788 8.25713 77.841 9.59696 77.0501 10.495C76.2621 11.3897 75.1031 11.8692 73.6089 11.8692V12.0433ZM78.453 6.49796H78.6271C78.6271 4.76457 78.1709 3.36446 77.3001 2.3958C76.4271 1.42458 75.157 0.908912 73.5763 0.908912V1.08308V1.25724C75.0782 1.25724 76.2464 1.74463 77.0411 2.62866C77.8381 3.51526 78.2788 4.82259 78.2788 6.49796H78.453ZM73.5763 1.08308V0.908912H71.8149V1.08308V1.25724H73.5763V1.08308ZM71.8149 1.08308V0.908912C71.5923 0.908912 71.3888 0.964542 71.24 1.10189C71.0889 1.24141 71.0209 1.44041 71.0209 1.67023H71.1951H71.3692C71.3692 1.50862 71.4154 1.41404 71.4763 1.35784C71.5396 1.29947 71.646 1.25724 71.8149 1.25724V1.08308ZM71.1951 1.67023H71.0209V10.9995H71.1951H71.3692V1.67023H71.1951ZM71.1951 10.9995H71.0209C71.0209 11.2133 71.0564 11.4103 71.1558 11.5806C71.2565 11.7533 71.4126 11.8812 71.6218 11.9741C72.0268 12.1541 72.6655 12.2175 73.6089 12.2175V12.0433V11.8692C72.6604 11.8692 72.0922 11.802 71.7633 11.6558C71.6055 11.5857 71.5129 11.5015 71.4566 11.4051C71.399 11.3064 71.3692 11.1771 71.3692 10.9995H71.1951Z" fill="#FFFCF5" mask="url(#path-1-outside-1_807_202)"/>
</svg>
